<svg width="194" height="124" viewBox="0 0 194 124" fill="none" xmlns="http://www.w3.org/2000/svg">
<g id="undraw_medicine_b-1-ol (1) 1" clip-path="url(#clip0_279_461)">
<path id="Vector" opacity="0.1" d="M64.497 123.93C73.9446 123.93 81.6035 122.82 81.6035 121.451C81.6035 120.082 73.9446 118.972 64.497 118.972C55.0493 118.972 47.3905 120.082 47.3905 121.451C47.3905 122.82 55.0493 123.93 64.497 123.93Z" fill="white"/>
<path id="Vector_2" opacity="0.1" d="M157.485 124C169.275 124 178.832 122.89 178.832 121.521C178.832 120.152 169.275 119.042 157.485 119.042C145.696 119.042 136.139 120.152 136.139 121.521C136.139 122.89 145.696 124 157.485 124Z" fill="white"/>
<path id="Vector_3" opacity="0.1" d="M2.42974 53.5771H20.2472V75.4911H3.73414C3.69025 75.716 3.64812 75.9426 3.60247 76.1691H20.2472V93.8422C20.2174 93.8343 20.1911 93.8248 20.163 93.8153C19.6925 93.6474 19.2255 93.4699 18.7585 93.2798L18.4601 93.1579C17.9919 92.9582 17.5237 92.747 17.0556 92.5242C16.8923 92.4466 16.729 92.3658 16.5675 92.2834C13.9685 90.9697 11.6075 89.305 9.56622 87.3471C9.50653 87.2948 9.45035 87.2394 9.39066 87.1887C9.10626 86.9099 8.82712 86.6279 8.55676 86.3396L8.25831 86.0227C7.93879 85.6694 7.6298 85.3067 7.3296 84.9391C7.28571 84.8853 7.24357 84.8314 7.19793 84.7807C5.977 83.2531 4.96324 81.5991 4.17831 79.8539C4.15373 79.8016 4.13266 79.7446 4.10984 79.6955C3.86874 79.1358 3.65514 78.5707 3.46905 78.0004C3.38829 77.7612 3.31105 77.5252 3.24433 77.2765C3.21976 77.2036 3.19869 77.1323 3.17938 77.061C2.1822 73.5489 2.06458 69.9005 2.06458 66.2775C2.06458 65.8545 2.06458 65.43 2.06458 65.0102C2.06458 63.5448 2.08389 62.0699 2.11198 60.5966C2.11198 60.2149 2.12953 59.8347 2.13831 59.4513C2.16289 58.4786 2.198 57.5059 2.24365 56.5332C2.25418 56.2623 2.26822 55.993 2.28402 55.7237C2.28402 55.5685 2.2928 55.4132 2.31036 55.258C2.35249 54.694 2.3876 54.1348 2.42974 53.5771Z" fill="white"/>
<path id="Vector_4" opacity="0.1" d="M20.2473 29.1775H10.4739C12.0626 26.9337 13.7985 24.7775 15.6722 22.7204C17.1241 21.1109 18.6567 19.5426 20.2473 18.0312V29.1775Z" fill="white"/>
<path id="Vector_5" opacity="0.1" d="M20.2473 29.8555V52.8989H2.48593C2.48593 52.8324 2.49822 52.7643 2.50349 52.6977C2.51929 52.5156 2.53509 52.3334 2.55264 52.1528C2.57195 51.9405 2.59302 51.7266 2.61584 51.5191C2.63867 51.3116 2.66325 51.0581 2.68958 50.8284C2.71591 50.5987 2.74049 50.3658 2.77034 50.1361C2.80018 49.9064 2.82652 49.6767 2.85812 49.4486C2.88972 49.2205 2.91781 48.9892 2.95116 48.7611C2.9775 48.571 3.00559 48.3824 3.03368 48.1923C3.07405 47.9246 3.11619 47.6553 3.16183 47.3892C3.16183 47.3496 3.17412 47.3084 3.18115 47.2703C3.50157 45.3221 3.93818 43.3908 4.48906 41.4849C5.0657 39.4857 5.80205 37.5267 6.69233 35.6235C7.63853 33.6324 8.7464 31.7072 10.0069 29.8634L20.2473 29.8555Z" fill="white"/>
<path id="Vector_6" opacity="0.1" d="M24.501 53.5754V75.4909H62.557V53.5754H24.501ZM24.501 76.1673V94.9874C24.7187 95.0286 24.9347 95.0682 25.1489 95.1014C25.4403 95.1521 25.73 95.1981 26.0266 95.2377C26.0828 95.2456 26.1408 95.2535 26.2022 95.2583C26.3181 95.2757 26.4375 95.29 26.5533 95.3042C26.8465 95.3407 27.1379 95.3708 27.4311 95.3945C27.5698 95.4072 27.7103 95.4183 27.8507 95.4278L28.1895 95.4515C28.3739 95.4642 28.5565 95.4737 28.7373 95.4785C28.8496 95.4785 28.962 95.488 29.0779 95.4911C29.1656 95.4911 29.2534 95.4911 29.3447 95.4911C29.436 95.4911 29.5659 95.4911 29.6765 95.4911C29.8275 95.4911 29.9785 95.4911 30.1277 95.4911H30.3296C30.4806 95.4911 30.6316 95.4911 30.7808 95.4785H30.7913C30.8949 95.4785 31.0002 95.4785 31.1056 95.4658C31.1348 95.4674 31.1641 95.4674 31.1934 95.4658C31.2811 95.4658 31.3689 95.4658 31.4532 95.4547H31.5146L32.1028 95.4135C32.2959 95.3977 32.4907 95.3771 32.6874 95.3581L33.0876 95.3153C34.7161 95.1094 36.3264 94.8003 37.9067 94.3902C41.4565 93.4967 44.9291 92.2468 48.4772 91.3311C53.0645 90.1509 58.1329 89.5711 62.5658 91.0143V76.1673H24.501ZM62.557 29.1774V0.00161418C58.3905 -0.0391188 54.2354 0.400618 50.1924 1.31015C40.5559 3.49473 31.9096 8.23301 24.501 14.2846V29.1758H26.4111V29.8523H24.501V52.8989H62.557V29.8539H34.2534V29.1774H62.557ZM111.438 19.3223C109.054 19.2462 106.684 18.565 104.54 17.5131C100.441 15.5012 97.1668 12.3946 93.5081 9.77283C85.9064 4.31216 76.4789 1.01707 66.8073 0.199637V29.1774H121.134L121.269 29.0491L111.438 19.3223ZM116.387 18.5302L121.634 23.7263V17.1678C119.877 17.3642 118.337 17.8315 116.394 18.5238L116.387 18.5302ZM121.634 99.6607V76.1673H110.453C110.423 76.0675 110.393 75.9661 110.358 75.8648C110.392 75.9661 110.42 76.0675 110.451 76.1673H66.8143V93.1577C67.2286 93.4349 67.6377 93.7264 68.0432 94.0226C68.4804 94.3395 68.9123 94.6737 69.3459 95.0016L69.783 95.328C69.9919 95.4864 70.2026 95.6448 70.415 95.7937C70.8364 96.1021 71.2618 96.4063 71.6914 96.7062C71.9038 96.8646 72.1215 97.0072 72.3374 97.1561C75.7656 99.5212 79.3819 101.656 83.1571 103.542C84.0033 103.964 84.8571 104.377 85.7185 104.779C86.2926 105.044 86.8702 105.307 87.4496 105.562C88.3203 105.945 89.1981 106.315 90.0829 106.671C98.2405 109.975 106.867 112.242 115.715 113.408C117.68 113.67 119.652 113.876 121.633 114.026V99.6591H121.808L121.634 99.6607ZM66.8143 29.8539V52.8989H121.641V29.8539H66.8143ZM66.8143 53.5754V75.4909H121.641V53.5754H66.8143ZM125.897 17.1393V24.455L132.595 17.8236C130.376 17.5005 128.143 17.2697 125.897 17.1313V17.1393ZM125.897 53.5833V75.4909H179.223V53.5754L125.897 53.5833ZM179.028 101.4L179.216 76.1673H125.897V114.278C129.332 114.408 132.772 114.371 136.202 114.167H136.262C137.901 114.074 139.532 113.939 141.155 113.761H141.192C149.852 112.852 158.32 110.813 166.332 107.708M189.506 57.1841C189.306 56.758 189.097 56.335 188.884 55.9168C188.487 55.1247 188.068 54.3548 187.636 53.5849H183.475V75.4909H193.995C193.989 69.2872 192.25 62.9505 189.511 57.1762L189.506 57.1841ZM183.475 76.1753V97.8785C186.439 95.3153 188.942 92.383 190.745 89.0309C192.913 84.9944 193.905 80.6236 193.986 76.1721L183.475 76.1753ZM183.475 47.1975V52.9005H187.246C186.105 50.9373 184.848 49.0309 183.48 47.1895L183.475 47.1975ZM147.31 21.4387C147.033 21.3437 146.755 21.247 146.476 21.1536C143.532 20.1725 140.524 19.3567 137.468 18.7108L127.219 28.8606L127.022 29.0491L127.154 29.179H163.632C158.551 26.0234 153.074 23.4225 147.315 21.4308L147.31 21.4387ZM164.701 29.8618H126.645L125.897 30.4796V52.8989H132.452H132.463H179.23V42.0394C175 37.4224 170.117 33.3257 164.706 29.8539L164.701 29.8618Z" fill="white"/>
<path id="Vector_7" opacity="0.1" d="M20.2473 41.4785V52.8989H2.48593C2.48593 52.8323 2.49822 52.7642 2.50349 52.6977C2.51929 52.5155 2.53509 52.3333 2.55264 52.1527C2.57195 51.9404 2.59302 51.7266 2.61584 51.519C2.63867 51.3115 2.66325 51.058 2.68958 50.8283C2.71591 50.5986 2.74049 50.3658 2.77034 50.1361C2.80018 49.9063 2.82652 49.6766 2.85812 49.4485C2.88972 49.2204 2.91781 48.9891 2.95116 48.761C2.9775 48.5709 3.00559 48.3824 3.03368 48.1923C3.07405 47.9245 3.11619 47.6552 3.16183 47.3891C3.16183 47.3495 3.17412 47.3083 3.18115 47.2703C3.50157 45.322 3.93818 43.3907 4.48906 41.4849L20.2473 41.4785Z" fill="white"/>
<path id="Vector_8" opacity="0.1" d="M2.42974 53.5771H20.2472V75.4911H3.73414C3.69025 75.716 3.64812 75.9426 3.60247 76.1691H20.2472V93.8422C20.2174 93.8343 20.1911 93.8248 20.163 93.8153C19.6925 93.6474 19.2255 93.4699 18.7585 93.2798L18.4601 93.1579C17.9919 92.9582 17.5237 92.747 17.0556 92.5242C16.8923 92.4466 16.729 92.3658 16.5675 92.2834C13.9685 90.9697 11.6075 89.305 9.56622 87.3471C9.50653 87.2948 9.45035 87.2394 9.39066 87.1887C9.10626 86.9099 8.82712 86.6279 8.55676 86.3396L8.25831 86.0227C7.93879 85.6694 7.6298 85.3067 7.3296 84.9391C7.28571 84.8853 7.24357 84.8314 7.19793 84.7807C5.977 83.2531 4.96324 81.5991 4.17831 79.8539C4.15373 79.8016 4.13266 79.7446 4.10984 79.6955C3.86874 79.1358 3.65514 78.5707 3.46905 78.0004C3.38829 77.7612 3.31105 77.5252 3.24433 77.2765C3.21976 77.2036 3.19869 77.1323 3.17938 77.061C2.1822 73.5489 2.06458 69.9005 2.06458 66.2775C2.06458 65.8545 2.06458 65.43 2.06458 65.0102C2.06458 63.5448 2.08389 62.0699 2.11198 60.5966C2.11198 60.2149 2.12953 59.8347 2.13831 59.4513C2.16289 58.4786 2.198 57.5059 2.24365 56.5332C2.25418 56.2623 2.26822 55.993 2.28402 55.7237C2.28402 55.5685 2.2928 55.4132 2.31036 55.258C2.35249 54.694 2.3876 54.1348 2.42974 53.5771Z" fill="white"/>
<path id="Vector_9" opacity="0.1" d="M37.898 33.1535V52.8987H24.501V33.1535H26.4111V26.4683H34.2516V33.1535H37.898Z" fill="white"/>
<path id="Vector_10" opacity="0.1" d="M37.898 53.5752H24.5028V75.4891H37.898V53.5752Z" fill="white"/>
<path id="Vector_11" opacity="0.1" d="M24.501 76.1689H37.898V94.387C36.3177 94.7968 34.7073 95.1054 33.0789 95.3106L32.6786 95.3549C32.482 95.3755 32.2871 95.393 32.094 95.4104C31.9009 95.4278 31.7007 95.4405 31.5059 95.4516H31.4444C31.3601 95.4516 31.2688 95.4611 31.1863 95.4627H31.0968C30.9915 95.4627 30.8861 95.4722 30.7808 95.4753C30.6316 95.4833 30.4823 95.4848 30.3296 95.4864C30.2646 95.4864 30.2032 95.4864 30.1382 95.4864C29.9873 95.4864 29.838 95.4864 29.6871 95.4864H29.3552C29.2657 95.4864 29.1797 95.4864 29.0866 95.4864L28.7478 95.4753C28.5723 95.4753 28.3827 95.4579 28.2001 95.4468L27.863 95.4246L27.4434 95.3898C27.1485 95.366 26.8553 95.3359 26.5656 95.2995L26.2145 95.2551L26.0389 95.233C25.7458 95.1918 25.4561 95.1474 25.1611 95.0967C24.9452 95.0634 24.731 95.0223 24.5133 94.9827L24.501 76.1689Z" fill="white"/>
<path id="Vector_12" opacity="0.1" d="M121.641 30.8218H110.595V52.8973H121.641V30.8218Z" fill="white"/>
<path id="Vector_13" opacity="0.1" d="M121.643 53.5752V75.4907H66.8143V66.0379H96.0186V71.6142H110.595V53.5752H121.643Z" fill="white"/>
<path id="Vector_14" opacity="0.1" d="M121.817 99.6653H121.641V114.042C119.664 113.891 117.691 113.685 115.725 113.425C106.873 112.256 98.2431 109.984 90.083 106.674C87.7269 105.717 85.4189 104.672 83.1589 103.54C79.3837 101.653 75.7669 99.5186 72.3374 97.1544C71.476 96.5587 70.6257 95.9494 69.7865 95.3263C69.2054 94.8938 68.6279 94.4502 68.0432 94.0193C67.6377 93.7231 67.2287 93.4316 66.8143 93.1528V76.1688H110.45C110.42 76.0674 110.39 75.966 110.358 75.8662C110.392 75.966 110.423 76.0674 110.453 76.1688H121.641V99.6558C121.701 99.6574 121.759 99.6622 121.817 99.6653Z" fill="white"/>
<path id="Vector_15" opacity="0.1" d="M150.451 29.1772H143.253V27.1589H146.48V21.147C146.759 21.2389 147.038 21.3334 147.315 21.4305V27.1589H150.451V29.1772Z" fill="white"/>
<path id="Vector_16" opacity="0.1" d="M167.792 52.8989H132.456C132.456 52.8989 132.456 52.8989 132.468 52.9069L132.452 52.8989H125.897V30.8234H127.754V47.1404H136.243V37.477H143.255V29.8555H150.453V37.4833H157.464V47.1468H167.792V52.8989Z" fill="white"/>
<path id="Vector_17" opacity="0.1" d="M125.897 53.5752V75.4907H167.792V53.5752H125.897ZM179.165 101.287L179.223 83.9407H167.792V76.1783H125.897V114.278C129.332 114.408 132.772 114.371 136.202 114.167H136.262C137.901 114.074 139.532 113.939 141.155 113.761H141.192C149.852 112.852 158.32 110.813 166.332 107.708" fill="white"/>
<path id="Vector_18" opacity="0.1" d="M184.22 76.1689H193.993C193.907 80.6189 192.917 84.9896 190.75 89.0261C188.947 92.3798 186.442 95.3122 183.482 97.8738V83.933H184.22V76.1689Z" fill="white"/>
<path id="Vector_19" opacity="0.1" d="M193.998 75.491H184.22V57.1763H189.511C192.25 62.9506 193.989 69.2873 193.998 75.491Z" fill="white"/>
<path id="Vector_20" opacity="0.1" d="M121.643 36.959H115.725V43.8803H121.643V36.959Z" fill="white"/>
<path id="Vector_21" opacity="0.1" d="M121.643 51.3052H115.725V52.8989H121.643V51.3052Z" fill="white"/>
<path id="Vector_22" opacity="0.1" d="M121.643 53.5752H115.725V58.2248H121.643V53.5752Z" fill="white"/>
<path id="Vector_23" opacity="0.1" d="M121.643 65.6514H115.725V72.5726H121.643V65.6514Z" fill="white"/>
<path id="Vector_24" opacity="0.1" d="M121.643 79.998H115.725V86.9193H121.643V79.998Z" fill="white"/>
<path id="Vector_25" opacity="0.1" d="M121.641 99.656C121.701 99.656 121.759 99.656 121.817 99.6655H121.641V101.273H115.725V94.3442H121.641V99.656Z" fill="white"/>
<path id="Vector_26" opacity="0.1" d="M121.641 108.688V114.034C119.664 113.883 117.691 113.678 115.725 113.418V108.688H121.641Z" fill="white"/>
<path id="Vector_27" opacity="0.1" d="M92.1774 74.9824H66.8143V75.4909H92.1774V74.9824Z" fill="white"/>
<path id="Vector_28" opacity="0.1" d="M92.1774 76.1675H66.8143V78.116H92.1774V76.1675Z" fill="white"/>
<path id="Vector_29" opacity="0.1" d="M92.1774 84.5034H66.8143V87.6369H92.1774V84.5034Z" fill="white"/>
<path id="Vector_30" opacity="0.1" d="M92.1756 94.0244V97.1579H72.3374C71.476 96.5644 70.6251 95.955 69.7848 95.3298C69.2037 94.8973 68.6279 94.4537 68.0415 94.0244H92.1756Z" fill="white"/>
<path id="Vector_31" opacity="0.1" d="M92.1756 103.543V106.674H90.0812C87.7275 105.716 85.4201 104.671 83.1589 103.539L92.1756 103.543Z" fill="white"/>
<path id="Vector_32" opacity="0.1" d="M141.197 55.6997H136.204V60.2051H141.197V55.6997Z" fill="white"/>
<path id="Vector_33" opacity="0.1" d="M33.0912 34.708H28.0983V39.2134H33.0912V34.708Z" fill="white"/>
<path id="Vector_34" opacity="0.1" d="M33.0912 45.1729H28.0983V49.6783H33.0912V45.1729Z" fill="white"/>
<path id="Vector_35" opacity="0.1" d="M33.0912 55.6377H28.0983V60.1431H33.0912V55.6377Z" fill="white"/>
<path id="Vector_36" opacity="0.1" d="M33.0912 66.1016H28.0983V70.607H33.0912V66.1016Z" fill="white"/>
<path id="Vector_37" opacity="0.1" d="M33.0912 76.5664H28.0983V81.0718H33.0912V76.5664Z" fill="white"/>
<path id="Vector_38" opacity="0.1" d="M33.0912 87.0317H28.0983V91.5371H33.0912V87.0317Z" fill="white"/>
<path id="Vector_39" opacity="0.1" d="M160.258 55.6997H155.265V60.2051H160.258V55.6997Z" fill="white"/>
<path id="Vector_40" opacity="0.1" d="M141.197 66.8125H136.204V71.3179H141.197V66.8125Z" fill="white"/>
<path id="Vector_41" opacity="0.1" d="M160.258 66.8125H155.265V71.3179H160.258V66.8125Z" fill="white"/>
<path id="Vector_42" opacity="0.1" d="M141.197 77.9243H136.204V82.4297H141.197V77.9243Z" fill="white"/>
<path id="Vector_43" opacity="0.1" d="M160.258 77.9243H155.265V82.4297H160.258V77.9243Z" fill="white"/>
<path id="Vector_44" opacity="0.1" d="M141.197 89.0371H136.204V93.5425H141.197V89.0371Z" fill="white"/>
<path id="Vector_45" opacity="0.1" d="M160.258 89.0371H155.265V93.5425H160.258V89.0371Z" fill="white"/>
<path id="Vector_46" opacity="0.1" d="M141.197 100.15H136.204V104.656H141.197V100.15Z" fill="white"/>
<path id="Vector_47" opacity="0.1" d="M160.258 100.15H155.265V104.656H160.258V100.15Z" fill="white"/>
<path id="Vector_48" opacity="0.1" d="M136.204 114.167V111.262H141.195V113.754L136.204 114.167Z" fill="white"/>
<path id="Vector_49" opacity="0.1" d="M3.16006 47.2671V49.8445H20.2472V47.2671H3.16006ZM4.86299 49.683H3.46905V47.4255H4.87352L4.86299 49.683ZM6.56416 49.683H5.15968V47.4255H6.56416V49.683ZM8.26182 49.683H6.85734V47.4255H8.26182V49.683ZM9.96299 49.683H8.56027V47.4255H9.96474L9.96299 49.683ZM11.6624 49.683H10.2579V47.4255H11.6624V49.683ZM13.3636 49.683H11.9591V47.4255H13.3636V49.683ZM15.0647 49.683H13.6603V47.4255H15.0647V49.683ZM16.7642 49.683H15.3597V47.4255H16.7642V49.683ZM18.4636 49.683H17.0591V47.4255H18.4636V49.683ZM20.163 49.683H18.7585V47.4255H20.163V49.683Z" fill="white"/>
<path id="Vector_50" opacity="0.1" d="M3.16006 54.7666V57.3441H20.2472V54.7666H3.16006ZM4.86299 57.1809H3.46905V54.9298H4.87352L4.86299 57.1809ZM6.56416 57.1809H5.15968V54.9298H6.56416V57.1809ZM8.26182 57.1809H6.85734V54.9298H8.26182V57.1809ZM9.96299 57.1809H8.56027V54.9298H9.96474L9.96299 57.1809ZM11.6624 57.1809H10.2579V54.9298H11.6624V57.1809ZM13.3636 57.1809H11.9591V54.9298H13.3636V57.1809ZM15.0647 57.1809H13.6603V54.9298H15.0647V57.1809ZM16.7642 57.1809H15.3597V54.9298H16.7642V57.1809ZM18.4636 57.1809H17.0591V54.9298H18.4636V57.1809ZM20.163 57.1809H18.7585V54.9298H20.163V57.1809Z" fill="white"/>
<path id="Vector_51" opacity="0.1" d="M3.16006 62.2695V64.8517H20.2472V62.2695H3.16006ZM4.86299 64.6838H3.46905V62.4311H4.87352L4.86299 64.6838ZM6.56416 64.6838H5.15968V62.4311H6.56416V64.6838ZM8.26182 64.6838H6.85734V62.4311H8.26182V64.6838ZM9.96299 64.6838H8.56027V62.4311H9.96474L9.96299 64.6838ZM11.6624 64.6838H10.2579V62.4311H11.6624V64.6838ZM13.3636 64.6838H11.9591V62.4311H13.3636V64.6838ZM15.0647 64.6838H13.6603V62.4311H15.0647V64.6838ZM16.7642 64.6838H15.3597V62.4311H16.7642V64.6838ZM18.4636 64.6838H17.0591V62.4311H18.4636V64.6838ZM20.163 64.6838H18.7585V62.4311H20.163V64.6838Z" fill="white"/>
<path id="Vector_52" opacity="0.1" d="M3.16006 69.772V72.3463H20.2472V69.772H3.16006ZM4.86299 72.1863H3.46905V69.932H4.87352L4.86299 72.1863ZM6.56416 72.1863H5.15968V69.932H6.56416V72.1863ZM8.26182 72.1863H6.85734V69.932H8.26182V72.1863ZM9.96299 72.1863H8.56027V69.932H9.96474L9.96299 72.1863ZM11.6624 72.1863H10.2579V69.932H11.6624V72.1863ZM13.3636 72.1863H11.9591V69.932H13.3636V72.1863ZM15.0647 72.1863H13.6603V69.932H15.0647V72.1863ZM16.7642 72.1863H15.3597V69.932H16.7642V72.1863ZM18.4636 72.1863H17.0591V69.932H18.4636V72.1863ZM20.163 72.1863H18.7585V69.932H20.163V72.1863Z" fill="white"/>
<path id="Vector_53" opacity="0.1" d="M3.2338 77.2729C3.30226 77.5153 3.37951 77.7577 3.46027 77.9969V77.4345H4.86474V79.6872H4.11335C4.13617 79.7395 4.15899 79.7966 4.18181 79.8457H20.2472V77.2729H3.2338ZM6.56942 79.6872H5.16495V77.4345H6.56942V79.6872ZM8.26708 79.6872H6.8626V77.4345H8.26708V79.6872ZM9.96825 79.6872H8.56026V77.4345H9.96474L9.96825 79.6872ZM11.6677 79.6872H10.2632V77.4345H11.6677V79.6872ZM13.3688 79.6872H11.9644V77.4345H13.3688V79.6872ZM15.07 79.6872H13.6655V77.4345H15.07V79.6872ZM16.7694 79.6872H15.3649V77.4345H16.7694V79.6872ZM18.4688 79.6872H17.0644V77.4345H18.4688V79.6872ZM20.1682 79.6872H18.7638V77.4345H20.1682V79.6872Z" fill="white"/>
<path id="Vector_54" opacity="0.1" d="M7.20145 84.7759C7.24534 84.8266 7.28747 84.8836 7.33312 84.9343H8.26182V86.0163C8.36189 86.124 8.46021 86.2317 8.56203 86.3331V84.928H9.9665V87.1886H9.39769C9.45387 87.2409 9.50829 87.2963 9.57325 87.347H20.2525V84.7759H7.20145ZM11.6624 87.1886H10.2579V84.9375H11.6624V87.1886ZM13.3636 87.1886H11.9591V84.9375H13.3636V87.1886ZM15.0647 87.1886H13.6603V84.9375H15.0647V87.1886ZM16.7642 87.1886H15.3597V84.9375H16.7642V87.1886ZM18.4636 87.1886H17.0591V84.9375H18.4636V87.1886ZM20.163 87.1886H18.7585V84.9375H20.163V87.1886Z" fill="white"/>
<path id="Vector_55" opacity="0.1" d="M16.5746 92.2769C16.7343 92.3592 16.8976 92.4353 17.0626 92.5177V92.4384H18.4671V93.1513L18.7655 93.2765V92.4384H20.17V93.8088C20.1969 93.8208 20.2252 93.8304 20.2543 93.8373V92.2769H16.5746Z" fill="white"/>
<path id="Vector_56" opacity="0.1" d="M110.358 75.8649C110.392 75.9663 110.42 76.0677 110.451 76.1675C110.423 76.0677 110.393 75.9663 110.358 75.8649ZM26.4182 29.1729V29.8493H34.2604V29.1729H26.4182ZM110.358 75.8649C110.392 75.9663 110.42 76.0677 110.451 76.1675C110.423 76.0677 110.393 75.9663 110.358 75.8649ZM110.358 75.8649C110.392 75.9663 110.42 76.0677 110.451 76.1675C110.423 76.0677 110.393 75.9663 110.358 75.8649Z" fill="white"/>
<path id="Vector_57" d="M81.0382 60.1467C81.0382 60.1467 80.3464 60.0596 80.3464 59.1503C80.3464 58.241 79.8514 56.5427 79.8514 56.5427C79.8514 56.5348 79.423 53.5851 78.8314 53.1162C78.2397 52.6472 77.4796 49.8939 77.4796 49.8939C77.4796 49.8939 77.3497 48.4001 77.0846 48.0785C76.8195 47.7569 76.4613 46.9695 75.9329 45.8464C75.4045 44.7232 73.2012 43.9454 73.2012 43.9454C73.2012 43.9454 69.2177 41.8606 68.0889 41.181C67.9863 41.1251 67.8904 41.0598 67.8027 40.9861C67.6061 40.7532 66.7494 40.7485 66.7494 40.7485C66.6599 40.2384 66.5738 39.6522 66.5457 39.1215C66.5457 39.0645 66.5457 39.0075 66.537 38.9504C67.7957 38.279 68.7438 37.2204 69.2072 35.969C69.2283 35.9088 69.2458 35.8454 69.2651 35.7852C69.3406 35.7628 69.41 35.7265 69.4689 35.6784C69.5279 35.6304 69.5751 35.5718 69.6075 35.5064C69.7093 35.3021 69.7111 35.0629 69.8375 34.8728C69.9849 34.6478 70.2658 34.5274 70.487 34.3579C71.0453 33.9302 71.1893 33.2094 71.1629 32.5535C71.1454 32.0228 71.0506 31.4874 71.0875 30.9598L71.098 30.8268C71.1085 30.7476 71.1208 30.6683 71.1366 30.5923C71.2226 30.1994 71.4105 29.8287 71.5158 29.439C71.6212 29.0493 71.6317 28.6105 71.3859 28.2747C71.026 27.782 70.2764 27.6838 69.618 27.6331C68.8719 27.576 68.2048 27.6505 67.7272 27.0913C67.5038 26.799 67.2523 26.5249 66.9759 26.2723C66.8775 26.1899 65.9225 25.6639 65.9225 25.6291C64.9904 25.2395 63.9338 25.1664 62.9468 25.4231C62.4517 25.553 61.9847 25.7653 61.4826 25.8715C60.3994 26.1027 59.1529 25.8524 58.233 26.4117C57.7204 26.7285 57.4131 27.2323 57.1252 27.7234C56.8911 28.1279 56.6536 28.5318 56.4125 28.9353C56.0245 29.599 55.6295 30.2739 55.4662 31.0089C55.4319 31.1689 55.4107 31.3309 55.403 31.4937V31.5016C55.403 31.5602 55.403 31.6189 55.403 31.6775V31.7519C55.403 31.8074 55.403 31.8612 55.4135 31.9103C55.4241 31.9595 55.4223 31.9753 55.4276 32.0086C55.4328 32.0418 55.4416 32.1163 55.4521 32.167C55.4627 32.2177 55.4837 32.3064 55.5048 32.3761C55.5136 32.4062 55.5259 32.4347 55.5364 32.4632C55.554 32.5171 55.575 32.5694 55.5979 32.6216C55.6101 32.6486 55.6224 32.6771 55.6365 32.704C55.6628 32.7595 55.6944 32.8133 55.726 32.8624C55.7401 32.8846 55.7506 32.9052 55.7646 32.9258C55.8136 32.9995 55.8676 33.0704 55.9262 33.1381C56.3019 33.5611 56.8549 33.8304 57.2639 34.2264C57.2639 34.2423 57.2639 34.2581 57.2639 34.2724C57.2639 34.3167 57.2639 34.3595 57.2639 34.4038C57.2856 35.2871 57.5462 36.1522 58.0229 36.9239C58.4996 37.6956 59.178 38.3505 59.9991 38.8316C59.9991 38.8918 60.0079 38.9536 60.0114 39.0138C60.0457 39.484 60.0392 39.956 59.9921 40.4253C59.9206 40.3493 59.8311 40.2888 59.7302 40.2482C59.6294 40.2076 59.5197 40.188 59.4093 40.1908C59.3338 40.1875 59.2582 40.1934 59.1845 40.2083L59.1687 40.1972V40.2114C58.7825 40.297 58.3067 40.6598 57.852 41.6911C57.852 41.6911 56.4686 43.0978 55.4153 43.0392C54.3619 42.9806 51.6952 44.503 51.6952 44.503C51.6952 44.503 49.0934 46.027 48.5351 47.5795C48.2231 48.4598 47.8489 49.3212 47.415 50.1585L44.1988 56.1388L43.6054 60.8834C43.6054 60.8834 43.9337 62.9935 43.8687 63.3151C43.8038 63.6367 45.2188 66.5373 45.2188 66.5373C45.2188 66.5373 49.8939 73.9497 51.804 74.3299L51.941 74.2428C52.0227 74.2813 52.1094 74.3106 52.199 74.3299L52.5923 74.0796C52.6159 74.3586 52.6059 74.639 52.5624 74.916C52.2991 75.6479 52.6608 80.4242 53.1207 81.3605C53.5807 82.2967 53.4174 94.5725 53.4174 94.5725L53.3525 95.6561C53.3525 95.6561 53.3525 95.691 53.3683 95.7512L53.3525 96.0078L53.3999 96.03C53.4491 96.3737 53.4331 96.7224 53.3525 97.0613C53.1874 97.5365 53.1207 98.8799 53.1207 98.8799C53.1207 98.8799 51.8058 106.465 52.429 107.989C53.0523 109.513 53.5824 111.183 53.5824 111.183C53.5824 111.183 54.2408 113.084 53.614 113.408C52.9873 113.733 51.2054 114.278 51.5723 115.07C51.9059 115.802 53.1716 117.763 53.3595 118.05L53.3437 118.201L53.0856 120.724C53.1274 121.057 53.2275 121.382 53.3823 121.687C53.665 122.237 54.2145 122.807 55.259 122.746C55.4346 122.734 55.6382 122.715 55.8349 122.692C57.7467 122.46 60.101 121.69 60.101 121.69C59.9787 121.62 59.8667 121.537 59.7674 121.442C59.6734 121.36 59.599 121.261 59.5486 121.152C59.4982 121.043 59.4729 120.926 59.4742 120.808C59.5023 120.349 58.549 118.159 58.312 117.621C58.2751 117.543 58.2558 117.499 58.2558 117.499C58.2558 117.499 60.4293 115.449 60.0676 113.632C60.0676 113.632 57.6624 112.364 58.4542 111.669C59.246 110.974 60.661 108.976 60.661 108.976C60.661 108.976 60.7259 101.506 60.661 100.391C60.5932 99.6171 60.6339 98.8385 60.7821 98.0736C60.8085 97.9579 60.8401 97.8454 60.8734 97.7346C61.9684 97.882 63.0738 97.9578 64.181 97.9611C64.5847 97.9611 64.9955 97.9611 65.4099 97.9389C65.4099 98.0445 65.4151 98.1586 65.4257 98.2811C65.517 100.131 65.6873 103.376 65.8259 104.581C66.0226 106.31 67.1093 110.967 67.1093 110.967C67.1093 110.967 65.0359 112.168 67.4709 115.127C67.4709 115.127 67.4709 116.2 67.3094 116.355C67.137 116.863 66.9981 117.379 66.8933 117.901C66.7915 118.459 66.7494 119.023 66.9144 119.316C67.3094 120.016 69.6795 119.959 69.6795 119.959L69.7374 119.949C70.1848 119.908 70.637 119.947 71.0677 120.064C71.4983 120.181 71.8989 120.374 72.2461 120.632C73.1468 121.285 76.5649 120.998 78.4153 120.791C79.1404 120.708 79.6249 120.632 79.6249 120.632C79.6484 120.558 79.6567 120.481 79.6495 120.404C79.6302 119.994 79.2738 119.094 76.8581 118.291C76.8581 118.291 74.5863 116.913 74.6179 115.712H74.5705H74.3072C74.4986 115.702 74.6215 115.712 74.6215 115.712C74.6215 115.712 73.7314 112.781 74.0948 112.543C74.4582 112.306 73.3697 109.058 73.3697 109.058C73.3697 109.058 72.7465 103.609 72.7131 103.227C72.7145 102.899 72.7695 102.574 72.8764 102.261L72.7131 99.2728C72.7131 99.2728 72.6815 98.2795 72.7131 97.9563C72.7078 97.6758 72.6826 97.3959 72.6376 97.1183C72.6218 97.0074 72.606 96.8918 72.5885 96.7777C73.4399 96.5829 73.993 96.4023 73.993 96.4023L73.8946 86.0021C74.6179 84.7348 74.7514 81.9545 74.7479 79.9822C74.7479 78.7149 74.6847 77.7771 74.6847 77.7771L75.6731 76.3212C75.6731 76.3212 75.9013 74.5786 75.5396 74.1968C75.3799 74.0241 75.4519 73.8451 75.5835 73.6978C75.6519 73.6489 75.7241 73.6044 75.7995 73.5647C75.7995 73.5647 75.7889 73.5505 75.7766 73.5299C75.8457 73.4779 75.919 73.4307 75.9961 73.3889C75.9961 73.3889 75.645 72.8978 75.9592 72.6903C76.2542 72.8709 76.5175 73.0071 76.7176 73.118C76.7036 73.2336 76.6896 73.3002 76.6896 73.3002L76.7738 73.1418C76.9669 73.24 77.0846 73.3002 77.0846 73.3002C77.0846 73.3002 78.633 70.5168 78.5996 70.1065C78.5663 69.6962 79.653 67.9678 79.653 67.9678C79.653 67.9678 79.7847 67.0601 80.378 66.6799C80.9714 66.2997 80.838 63.5448 80.838 63.5448C80.838 63.5448 81.003 62.1095 81.3981 61.5234C81.7931 60.9372 81.0382 60.1467 81.0382 60.1467ZM51.4108 58.9253L51.4406 59.5891C51.2651 59.3341 51.1387 59.1503 51.1387 59.1503L51.4108 58.9253Z" fill="url(#paint0_linear_279_461)"/>
<path id="Vector_58" d="M77.1688 72.0974L76.7896 73.5549C76.7896 73.5549 73.7524 72.156 73.2047 70.3786C72.657 68.6011 74.1211 67.9263 74.1211 67.9263L76.9511 69.0083L77.1688 72.0974Z" fill="white"/>
<path id="Vector_59" opacity="0.1" d="M77.1688 72.0974L76.7896 73.5549C76.7896 73.5549 73.7524 72.156 73.2047 70.3786C72.657 68.6011 74.1211 67.9263 74.1211 67.9263L76.9511 69.0083L77.1688 72.0974Z" fill="black"/>
<path id="Vector_60" d="M60.1238 121.7C60.1238 121.7 57.3148 122.631 55.3837 122.749C54.3584 122.81 53.8194 122.243 53.5421 121.697C53.3905 121.393 53.2928 121.069 53.2524 120.738L53.5034 118.227L53.6369 116.89L57.7397 115.929L58.3208 117.532L58.3752 117.654C58.6087 118.189 59.5444 120.368 59.5163 120.822C59.5152 120.939 59.5401 121.054 59.5896 121.162C59.639 121.269 59.7121 121.367 59.8043 121.448C59.8985 121.544 60.0058 121.629 60.1238 121.7Z" fill="white"/>
<path id="Vector_61" d="M79.3107 120.423C79.3177 120.499 79.3093 120.576 79.2861 120.649C79.2861 120.649 73.2784 121.554 72.0495 120.649C71.703 120.385 71.2992 120.189 70.8638 120.074C70.4284 119.959 69.9712 119.927 69.5215 119.981C69.5215 119.981 67.1971 120.038 66.8091 119.347C66.6476 119.057 66.6897 118.495 66.7898 117.94C66.8919 117.421 67.0279 116.907 67.1971 116.402L67.2901 116.336L67.8431 115.935L74.3177 115.762H74.3669C74.3353 116.957 76.5649 118.327 76.5649 118.327C78.9332 119.119 79.2826 120.014 79.3107 120.423Z" fill="white"/>
<path id="Vector_62" opacity="0.1" d="M79.3107 120.423C79.3168 120.499 79.3079 120.576 79.2843 120.649C79.2843 120.649 73.2785 121.554 72.0495 120.649C71.7033 120.385 71.2997 120.189 70.8646 120.074C70.4296 119.959 69.9727 119.927 69.5232 119.981C69.5232 119.981 67.1971 120.038 66.8108 119.347C66.6493 119.056 66.6897 118.495 66.7898 117.94C67.6851 118.021 69.0984 118.222 69.6532 118.702C70.4923 119.433 71.9144 120.161 72.7869 120.218C73.4698 120.258 77.5551 120.375 79.3107 120.423Z" fill="black"/>
<path id="Vector_63" opacity="0.1" d="M60.1238 121.7C60.1238 121.7 57.3148 122.632 55.3837 122.749C54.3584 122.811 53.8195 122.243 53.5438 121.695C54.2583 121.912 55.2503 122.14 55.7717 121.931C56.3896 121.684 58.5806 121.524 59.8095 121.456C59.9031 121.548 60.0086 121.63 60.1238 121.7Z" fill="black"/>
<path id="Vector_64" d="M64.2916 46.6335C61.9742 45.8208 58.9932 43.1356 59.7376 41.881C59.9029 41.5643 60.0011 41.2226 60.0272 40.8734C60.0751 40.3994 60.0822 39.9227 60.0483 39.4477C59.9961 38.6697 59.8923 37.8952 59.7376 37.1284C59.7376 37.1284 66.9723 37.2757 66.551 38.2373C66.4281 38.5193 66.4088 39.0088 66.4422 39.557C66.4755 40.1051 66.5633 40.7245 66.6546 41.2489C66.781 41.9681 66.9074 42.5162 66.9074 42.5162C66.9074 42.5162 66.465 43.0754 66.2052 43.1055C65.9453 43.1356 67.6167 47.7915 64.2916 46.6335Z" fill="#CF6F80"/>
<path id="Vector_65" opacity="0.1" d="M58.3699 117.654L58.3155 117.708C56.1526 115.347 53.5368 118.289 53.5368 118.289L53.4982 118.227L53.6316 116.89L57.7344 115.929L58.3155 117.532L58.3699 117.654Z" fill="black"/>
<path id="Vector_66" opacity="0.1" d="M74.3686 115.929C74.3686 115.929 72.7886 115.898 71.9459 116.57C71.1032 117.242 67.0303 116.716 67.2058 116.57C67.2578 116.498 67.2892 116.415 67.2971 116.329L67.8501 115.929L74.3248 115.756C74.3493 115.862 74.3686 115.929 74.3686 115.929Z" fill="black"/>
<path id="Vector_67" d="M61.0613 97.3919C60.9436 97.6545 60.8542 97.9266 60.7944 98.2046C60.648 98.966 60.6073 99.7408 60.6733 100.511C60.7382 101.62 60.6733 109.051 60.6733 109.051C60.6733 109.051 59.2846 111.033 58.5104 111.732C57.7362 112.431 60.0904 113.685 60.0904 113.685C60.4415 115.491 58.3138 117.532 58.3138 117.532C56.1509 115.171 53.535 118.115 53.535 118.115C53.535 118.115 52.113 115.897 51.7584 115.105C51.4037 114.313 53.147 113.764 53.7597 113.443C54.3724 113.121 53.7299 111.225 53.7299 111.225C53.7299 111.225 53.212 109.563 52.5975 108.047C51.9831 106.531 53.2752 98.984 53.2752 98.984C53.2752 98.984 53.3419 97.6438 53.5017 97.1765C53.5823 96.8393 53.5983 96.4921 53.5491 96.1499C53.5385 96.0343 53.5263 95.9377 53.5175 95.8727C53.5087 95.8078 53.5017 95.7777 53.5017 95.7777L53.5263 95.7396L54.404 94.2632C54.404 94.2632 61.4826 96.462 61.0613 97.3919Z" fill="white"/>
<path id="Vector_68" d="M74.3686 115.754C74.3686 115.754 72.7886 115.724 71.9459 116.388C71.1032 117.052 67.0303 116.534 67.2058 116.388C67.3814 116.242 67.3673 115.163 67.3673 115.163C64.978 112.22 67.0162 111.025 67.0162 111.025C67.0162 111.025 65.9488 106.392 65.7557 104.673C65.6205 103.472 65.4537 100.245 65.3642 98.4026C65.3256 97.6105 65.3028 97.0656 65.3028 97.0656L67.255 96.7107L67.506 96.6648L72.2145 95.8125C72.2145 95.8125 72.3444 96.6046 72.4322 97.2525C72.476 97.5292 72.5006 97.808 72.506 98.0874C72.4744 98.4042 72.506 99.3959 72.506 99.3959L72.6657 102.369C72.5613 102.681 72.5075 103.005 72.506 103.331C72.5376 103.71 73.1503 109.131 73.1503 109.131C73.1503 109.131 74.2159 112.366 73.8525 112.598C73.4891 112.831 74.3686 115.754 74.3686 115.754Z" fill="white"/>
<path id="Vector_69" opacity="0.1" d="M66.551 38.2373C66.4281 38.5193 66.4088 39.0088 66.4422 39.557C65.4731 40.0835 64.359 40.3528 63.228 40.3337C62.097 40.3147 60.9949 40.0081 60.0483 39.4492C59.9962 38.6707 59.8924 37.8957 59.7375 37.1284C59.7375 37.1284 66.9723 37.2726 66.551 38.2373Z" fill="black"/>
<path id="Vector_70" d="M69.3477 34.7364C69.3491 35.3072 69.2495 35.8747 69.0527 36.4172C68.6129 37.6328 67.711 38.669 66.5063 39.3426C65.3017 40.0163 63.872 40.2839 62.4698 40.0983C61.0677 39.9127 59.7834 39.2858 58.8439 38.3284C57.9044 37.371 57.3703 36.1447 57.3359 34.8663C57.3359 34.8219 57.3359 34.7807 57.3359 34.7364C57.3223 34.0168 57.4676 33.3019 57.7633 32.6335C58.0591 31.9652 58.4993 31.3566 59.0585 30.8433C59.6176 30.3301 60.2844 29.9225 61.0199 29.6442C61.7555 29.366 62.5451 29.2227 63.3427 29.2227C64.1402 29.2227 64.9298 29.366 65.6654 29.6442C66.4009 29.9225 67.0677 30.3301 67.6269 30.8433C68.186 31.3566 68.6263 31.9652 68.922 32.6335C69.2178 33.3019 69.3631 34.0168 69.3494 34.7364H69.3477Z" fill="#CF6F80"/>
<path id="Vector_71" opacity="0.1" d="M64.2916 46.6336C61.9742 45.8209 58.9932 43.1357 59.7376 41.8811C59.9029 41.5645 60.0011 41.2227 60.0272 40.8735L63.1996 43.226L65.1623 44.6787L66.6546 41.2506C66.781 41.9698 66.9074 42.5179 66.9074 42.5179C66.9074 42.5179 66.465 43.0771 66.2052 43.1072C65.9453 43.1373 67.6167 47.7916 64.2916 46.6336Z" fill="black"/>
<path id="Vector_72" d="M72.4954 57.0305L69.8462 97.1894L66.3912 97.3938L57.4447 74.1079L58.9124 46.4624L59.2214 40.6216L63.1996 43.5697L65.1641 45.0224L66.7002 41.4945L69.5566 43.7408L72.4954 57.0305Z" fill="white"/>
<path id="Vector_73" opacity="0.1" d="M61.0613 97.392C60.9436 97.6545 60.8542 97.9266 60.7944 98.2046C58.2804 97.8544 55.8387 97.1661 53.5508 96.1626L53.5034 96.1405L53.5192 95.8854L53.528 95.7523L54.4058 94.2759C54.4058 94.2759 61.4826 96.462 61.0613 97.392Z" fill="black"/>
<path id="Vector_74" opacity="0.1" d="M67.2954 98.2111C66.6527 98.3097 66.0045 98.3763 65.3537 98.4107C65.3151 97.6186 65.2922 97.0736 65.2922 97.0736L67.2445 96.7188L67.2954 98.2111Z" fill="black"/>
<path id="Vector_75" opacity="0.1" d="M72.4217 97.2608C71.1735 97.5539 69.2458 97.8834 67.5201 97.6775L67.4955 96.6731L72.204 95.8208C72.204 95.8208 72.3339 96.605 72.4217 97.2608Z" fill="black"/>
<path id="Vector_76" opacity="0.1" d="M67.4885 97.8611C60.2905 98.9701 53.6983 95.7906 53.6983 95.7906L53.7615 94.7134C53.7615 94.7134 53.9248 82.5009 53.4718 81.5647C53.0189 80.6284 52.666 75.8807 52.9223 75.1519C53.1786 74.4232 51.9866 63.4955 51.9866 63.4955L51.7935 59.0598L44.7255 56.476L47.8855 50.5322C48.3124 49.6989 48.6794 48.8416 48.9845 47.9658C49.534 46.4228 52.0849 44.9068 52.0849 44.9068C52.0849 44.9068 54.7007 43.3923 55.7348 43.4493C56.7688 43.5064 58.1241 42.1091 58.1241 42.1091C59.1248 39.8073 60.0307 40.8497 60.0307 40.8497C60.0307 40.959 60.0307 40.8497 59.9816 41.1903C59.6304 43.7171 65.6591 51.7013 65.7452 51.8423L66.3193 64.4619L66.9004 80.432L67.4885 97.8611Z" fill="black"/>
<path id="Vector_77" d="M67.2954 97.8609C60.0975 98.9698 53.5034 95.7903 53.5034 95.7903L53.5684 94.7131C53.5684 94.7131 53.7317 82.5007 53.277 81.5644C52.8223 80.6282 52.4712 75.8804 52.7292 75.1517C52.9873 74.4229 51.7935 63.4953 51.7935 63.4953L51.5986 59.0596L44.5271 56.4663L47.6872 50.5224C48.1131 49.6887 48.4801 48.8316 48.7862 47.9561C49.3339 46.4131 51.8865 44.897 51.8865 44.897C51.8865 44.897 54.5024 43.3825 55.5347 43.4396C56.567 43.4966 57.924 42.0994 57.924 42.0994C58.9265 39.7976 60.0307 40.8399 60.0307 40.8399C60.0307 40.9492 59.9254 40.9984 59.9816 41.1805C60.754 43.6313 65.4661 51.6916 65.5521 51.8326L66.1332 64.4521L66.7143 80.4222L67.2954 97.8609Z" fill="white"/>
<path id="Vector_78" opacity="0.1" d="M65.3555 52.1924C64.5812 51.9009 60.4802 47.6759 60.4802 47.6759V46.7143C60.3309 46.3975 59.4444 46.5908 58.7246 46.8125L59.0336 40.9717L59.3847 41.2347C60.1536 43.6838 65.2659 52.0514 65.3555 52.1924Z" fill="black"/>
<path id="Vector_79" d="M65.5503 51.8423C64.7743 51.5508 60.6733 47.3258 60.6733 47.3258V46.3642C60.524 46.0474 59.6375 46.2407 58.9177 46.4625L59.2284 40.6216L59.5795 40.8846C60.3502 43.3337 65.4643 51.7029 65.5503 51.8423Z" fill="white"/>
<path id="Vector_80" opacity="0.1" d="M53.6983 72.9135C53.7949 72.9135 58.7035 72.4478 58.7035 72.4478C58.7035 72.4478 61.6757 77.7215 61.4809 79.0047C61.286 80.2879 60.9331 81.4237 59.7376 81.2225C58.542 81.0213 53.3033 81.3809 53.3033 81.3809L53.6983 72.9135Z" fill="black"/>
<path id="Vector_81" d="M53.5034 72.5634C53.6 72.5634 58.5086 72.0977 58.5086 72.0977C58.5086 72.0977 61.4791 77.373 61.286 78.6546C61.0929 79.9362 60.7365 81.0736 59.5427 80.8724C58.3489 80.6712 53.1084 81.0308 53.1084 81.0308L53.5034 72.5634Z" fill="white"/>
<path id="Vector_82" d="M57.2025 70.0874C57.2025 70.0874 61.7073 72.272 61.8039 72.9389C61.9004 73.6059 59.5111 72.6474 58.9949 72.5318C58.6552 72.4579 58.3094 72.4092 57.9609 72.386L54.5182 72.47L57.2025 70.0874Z" fill="#CF6F80"/>
<path id="Vector_83" opacity="0.1" d="M64.0984 52.4648C64.3602 52.4648 64.5724 52.2733 64.5724 52.0371C64.5724 51.8009 64.3602 51.6094 64.0984 51.6094C63.8366 51.6094 63.6244 51.8009 63.6244 52.0371C63.6244 52.2733 63.8366 52.4648 64.0984 52.4648Z" fill="black"/>
<path id="Vector_84" d="M64.0984 52.2905C64.3602 52.2905 64.5724 52.099 64.5724 51.8628C64.5724 51.6266 64.3602 51.4351 64.0984 51.4351C63.8366 51.4351 63.6244 51.6266 63.6244 51.8628C63.6244 52.099 63.8366 52.2905 64.0984 52.2905Z" fill="#3F3D56"/>
<path id="Vector_85" opacity="0.1" d="M64.971 70.9809C65.2327 70.9809 65.445 70.7894 65.445 70.5532C65.445 70.317 65.2327 70.1255 64.971 70.1255C64.7092 70.1255 64.4969 70.317 64.4969 70.5532C64.4969 70.7894 64.7092 70.9809 64.971 70.9809Z" fill="black"/>
<path id="Vector_86" d="M64.971 70.8047C65.2327 70.8047 65.445 70.6132 65.445 70.3769C65.445 70.1407 65.2327 69.9492 64.971 69.9492C64.7092 69.9492 64.4969 70.1407 64.4969 70.3769C64.4969 70.6132 64.7092 70.8047 64.971 70.8047Z" fill="#3F3D56"/>
<path id="Vector_87" opacity="0.1" d="M64.5707 61.7226C64.8325 61.7226 65.0447 61.5311 65.0447 61.2949C65.0447 61.0587 64.8325 60.8672 64.5707 60.8672C64.3089 60.8672 64.0967 61.0587 64.0967 61.2949C64.0967 61.5311 64.3089 61.7226 64.5707 61.7226Z" fill="black"/>
<path id="Vector_88" d="M64.5707 61.5483C64.8325 61.5483 65.0447 61.3568 65.0447 61.1206C65.0447 60.8844 64.8325 60.6929 64.5707 60.6929C64.3089 60.6929 64.0967 60.8844 64.0967 61.1206C64.0967 61.3568 64.3089 61.5483 64.5707 61.5483Z" fill="#3F3D56"/>
<path id="Vector_89" d="M75.4975 72.2969C75.4975 72.2969 75.8205 72.7342 75.4975 72.9385C75.1745 73.1429 75.5291 73.6371 75.5291 73.6371C75.5291 73.6371 74.7233 74.0633 75.0779 74.4467C75.4326 74.83 75.2078 76.5615 75.2078 76.5615L74.2387 78.0095C74.2387 78.0095 74.2967 78.9426 74.3002 80.2036C74.3002 82.1711 74.172 84.9371 73.4628 86.1981L73.5611 96.5444C73.5611 96.5444 70.1675 97.6628 67.327 97.3222L66.9056 80.72C66.9056 80.72 67.5201 71.3052 67.7466 69.4993C67.8791 68.5617 67.9331 67.6164 67.9081 66.6715C67.9081 66.6715 67.8115 63.8453 67.4867 62.5336C67.4867 62.5336 67.1356 56.8512 67.1005 55.2781C67.0847 54.5256 67.1286 52.3299 67.1778 50.242C67.2322 47.9592 67.2936 45.8063 67.2936 45.8063L66.6528 41.2312C66.6528 41.2312 67.2936 41.1726 67.4867 41.4054C67.5732 41.4784 67.6673 41.5436 67.7676 41.6003C68.8737 42.2752 72.7816 44.3504 72.7816 44.3504C72.7816 44.3504 74.9445 45.1267 75.4624 46.2388C75.9803 47.3509 76.3402 48.1398 76.5912 48.4566C76.8423 48.7735 76.9792 50.2626 76.9792 50.2626C76.9792 50.2626 77.7236 53.0032 78.3047 53.4674C78.8858 53.9315 79.3107 56.8844 79.3107 56.8844L74.1755 60.5281C74.1755 60.5281 73.7244 66.5891 73.6278 66.8236C73.5312 67.0581 75.4975 72.2969 75.4975 72.2969Z" fill="white"/>
<path id="Vector_90" d="M75.6924 72.2971C75.6924 72.2971 76.0136 72.7343 75.6924 72.9387C75.3711 73.143 75.7222 73.6373 75.7222 73.6373C75.7222 73.6373 74.9217 74.0682 75.2728 74.4516C75.6239 74.8349 75.4027 76.5665 75.4027 76.5665L74.4336 78.0144C74.4336 78.0144 74.4915 78.9475 74.4968 80.2085C74.4968 82.176 74.3687 84.942 73.6594 86.203L73.7559 96.5493C73.7559 96.5493 70.3571 97.6677 67.5201 97.3271L67.1005 80.7249C67.1005 80.7249 67.715 71.3101 67.9414 69.5042C68.0741 68.5666 68.1275 67.6213 68.1012 66.6764C68.1012 66.6764 68.0046 63.8502 67.6816 62.5385C67.6816 62.5385 67.3305 56.8561 67.2936 55.283C67.2778 54.5305 67.3235 52.3349 67.3709 50.2469C67.4253 47.9641 67.4867 45.8112 67.4867 45.8112L66.6405 41.1743C66.6405 41.1743 67.4867 41.1743 67.6816 41.4104C67.7673 41.4841 67.8615 41.5495 67.9625 41.6052C69.0685 42.2801 72.9782 44.3553 72.9782 44.3553C72.9782 44.3553 75.1394 45.1316 75.6573 46.2437C76.1752 47.3558 76.5351 48.1447 76.7879 48.4615C77.0407 48.7784 77.1741 50.2675 77.1741 50.2675C77.1741 50.2675 77.9185 53.0081 78.4996 53.4723C79.0807 53.9365 79.5002 56.883 79.5002 56.883L74.3651 60.5266C74.3651 60.5266 73.914 66.5877 73.8156 66.8222C73.7173 67.0566 75.6924 72.2971 75.6924 72.2971Z" fill="white"/>
<path id="Vector_91" opacity="0.1" d="M69.5425 47.1564L70.006 48.3762L67.5657 50.5941C67.6202 48.3129 67.6816 46.1584 67.6816 46.1584L66.8354 41.5215C66.8354 41.5215 67.6816 41.5215 67.8765 41.7575C67.9619 41.8311 68.0561 41.8959 68.1574 41.9508L70.2325 47.3528L69.5425 47.1564Z" fill="black"/>
<path id="Vector_92" d="M69.3477 46.8063L69.8129 48.0261L67.3726 50.244C67.427 47.9612 67.4885 45.8083 67.4885 45.8083L66.6405 41.1714C66.6405 41.1714 67.4885 41.1714 67.6816 41.4074C67.7677 41.4808 67.8618 41.546 67.9625 41.6023L70.0394 47.0027L69.3477 46.8063Z" fill="white"/>
<path id="Vector_93" opacity="0.1" d="M69.3477 34.7364C69.3491 35.3072 69.2495 35.8747 69.0527 36.4172C69.0196 36.4219 68.9857 36.4205 68.9531 36.4131C68.9206 36.4058 68.8899 36.3926 68.8631 36.3744C68.8175 34.9487 68.0398 33.61 67.083 32.471C66.8143 32.1271 66.4887 31.8225 66.1174 31.568C65.742 31.3136 65.2751 31.1945 64.8077 31.2338C64.281 31.2987 63.8158 31.6219 63.2838 31.6631C62.5816 31.7154 61.9531 31.2765 61.2561 31.2544C60.9728 31.2568 60.6933 31.3137 60.4363 31.4213C60.1792 31.529 59.9506 31.6848 59.7656 31.8785C59.3995 32.2694 59.1275 32.7247 58.9668 33.2156C58.6908 33.9599 58.5405 34.7374 58.5209 35.5221C58.5121 35.9657 58.4647 36.5218 58.0083 36.6833C58.0427 36.3571 58.0016 36.028 57.8876 35.7169C57.7737 35.4057 57.5894 35.1193 57.3464 34.8758L57.3359 34.8663C57.3359 34.8219 57.3359 34.7807 57.3359 34.7364C57.3223 34.0168 57.4676 33.3019 57.7633 32.6335C58.0591 31.9652 58.4993 31.3566 59.0585 30.8434C59.6176 30.3301 60.2844 29.9225 61.0199 29.6442C61.7555 29.366 62.5451 29.2227 63.3427 29.2227C64.1402 29.2227 64.9298 29.366 65.6654 29.6442C66.4009 29.9225 67.0677 30.3301 67.6269 30.8434C68.186 31.3566 68.6263 31.9652 68.922 32.6335C69.2178 33.3019 69.3631 34.0168 69.3494 34.7364H69.3477Z" fill="black"/>
<path id="Vector_94" d="M65.8294 26.1294C64.9172 25.7422 63.8796 25.6689 62.9116 25.9235C62.4254 26.0534 61.9671 26.2641 61.4738 26.3702C60.4205 26.5999 59.1915 26.3512 58.2874 26.9072C57.7853 27.2241 57.4834 27.7247 57.2025 28.211L56.5002 29.4182C56.1175 30.0788 55.7313 30.7505 55.5715 31.4776C55.4118 32.2047 55.5083 33.019 56.0192 33.6036C56.3914 34.0297 56.9409 34.2974 57.3447 34.6982C57.5866 34.942 57.7701 35.2283 57.8837 35.539C57.9972 35.8498 58.0385 36.1784 58.0048 36.5042C58.463 36.3458 58.5069 35.7881 58.5174 35.3446C58.537 34.5599 58.6873 33.7823 58.9633 33.038C59.1236 32.547 59.3956 32.0916 59.7621 31.701C59.9472 31.5074 60.1759 31.3517 60.4329 31.2441C60.6899 31.1365 60.9693 31.0794 61.2526 31.0768C61.9549 31.099 62.5851 31.5362 63.2803 31.4839C63.807 31.4443 64.274 31.1196 64.8042 31.0562C65.2717 31.0163 65.7388 31.1355 66.1138 31.3905C66.485 31.6446 66.8102 31.9492 67.0777 32.2935C68.0362 33.4325 68.814 34.7679 68.8596 36.1969C69.058 36.3284 69.3441 36.1573 69.4425 35.9545C69.5408 35.7517 69.5443 35.5141 69.6689 35.3208C69.8129 35.0974 70.0885 34.9786 70.3045 34.8107C70.8522 34.3846 70.9891 33.6669 70.9681 33.0158C70.947 32.3647 70.8065 31.7041 70.9435 31.0641C71.026 30.6713 71.2121 30.3037 71.3139 29.9156C71.4157 29.5275 71.428 29.0918 71.1875 28.7576C70.8364 28.2665 70.0973 28.1698 69.453 28.1239C68.7209 28.0669 68.0661 28.1397 67.5991 27.5837C67.3799 27.2935 67.1332 27.0211 66.8617 26.7694C66.7687 26.687 65.8294 26.1643 65.8294 26.1294Z" fill="#512E4E"/>
<path id="Vector_95" opacity="0.1" d="M46.7479 59.5367L44.9133 56.4761L44.3322 61.1985C44.3322 61.1985 44.6552 63.296 44.5903 63.6175C44.5253 63.9391 45.914 66.8223 45.914 66.8223C45.914 66.8223 50.5014 74.1951 52.3746 74.5753L58.7035 70.4945L57.0251 68.5713C57.0251 68.5713 56.444 68.3669 56.2983 68.5713C56.2983 68.5713 53.1822 63.7332 52.8591 63.3831C52.5361 63.033 52.5993 62.3344 52.5993 62.3344C52.5993 62.3344 52.1148 61.8686 52.2763 61.4314C52.4378 60.9942 51.3405 59.4781 51.3405 59.4781L52.3412 58.6337L46.7479 59.5367Z" fill="black"/>
<path id="Vector_96" d="M45.0099 56.1274L44.5253 56.476L43.9442 61.1984C43.9442 61.1984 44.2673 63.2958 44.2023 63.6174C44.1374 63.939 45.5278 66.8222 45.5278 66.8222C45.5278 66.8222 50.1134 74.195 51.9866 74.5752L58.3173 70.4944L56.6372 68.5712C56.6372 68.5712 56.0561 68.3668 55.9104 68.5712C55.9104 68.5712 52.7942 63.7331 52.4712 63.383C52.1481 63.0329 52.2131 62.3343 52.2131 62.3343C52.2131 62.3343 51.7285 61.8685 51.8901 61.4313C52.0516 60.994 50.9526 59.478 50.9526 59.478L51.9533 58.6336L45.0099 56.1274Z" fill="white"/>
<path id="Vector_97" opacity="0.1" d="M75.0779 74.6276C75.429 75.0125 75.2078 76.7409 75.2078 76.7409L74.2387 78.1888C74.2387 78.1888 74.2967 79.1235 74.3002 80.3829L72.671 80.8423C72.5238 80.8838 72.3677 80.8929 72.2157 80.8689C72.0638 80.8449 71.9204 80.7884 71.7976 80.7043C71.6747 80.6201 71.576 80.5106 71.5096 80.385C71.4431 80.2594 71.411 80.1212 71.4157 79.9821L71.6966 71.8062L75.4975 73.1179C75.1745 73.3206 75.5291 73.8181 75.5291 73.8181C75.5291 73.8181 74.7233 74.2426 75.0779 74.6276Z" fill="black"/>
<path id="Vector_98" d="M75.2728 74.4517C75.6239 74.8366 75.4027 76.5666 75.4027 76.5666L74.4336 78.0145C74.4336 78.0145 74.4915 78.9476 74.4968 80.2086L72.8378 80.6759C72.6936 80.7164 72.5408 80.7251 72.3921 80.7015C72.2433 80.6779 72.103 80.6225 71.9828 80.5401C71.8626 80.4576 71.7659 80.3505 71.7009 80.2275C71.6359 80.1045 71.6043 79.9693 71.6089 79.8331L71.8915 71.6318L75.6941 72.9435C75.3693 73.1463 75.724 73.6422 75.724 73.6422C75.724 73.6422 74.9217 74.0683 75.2728 74.4517Z" fill="white"/>
<path id="Vector_99" d="M76.5315 70.5544C76.5315 70.5544 76.2735 72.042 75.6274 72.1291C74.9813 72.2162 74.6917 74.5355 74.0474 74.4531C73.4031 74.3707 73.8297 72.297 73.8525 71.8946C73.8753 71.4923 73.1503 69.8257 73.6927 69.4471C74.2352 69.0685 75.9522 69.4471 75.9522 69.4471L76.5315 70.5544Z" fill="#CF6F80"/>
<path id="Vector_100" opacity="0.1" d="M77.9062 59.0992L79.1246 56.8813C79.1246 56.8813 79.6091 58.5717 79.6091 59.4746C79.6091 60.3776 80.2868 60.4663 80.2868 60.4663C80.2868 60.4663 81.0294 61.2584 80.6379 61.8351C80.2464 62.4117 80.0884 63.847 80.0884 63.847C80.0884 63.847 80.2165 66.586 79.6354 66.9646C79.0543 67.3433 78.9332 68.2478 78.9332 68.2478C78.9332 68.2478 77.8658 69.9667 77.8992 70.3754C77.9325 70.7841 76.4139 73.5517 76.4139 73.5517C76.4139 73.5517 77.1565 70.1124 72.829 68.6264C72.829 68.6264 72.7957 67.4589 73.1187 67.1389C73.4417 66.8189 73.9456 66.6732 73.6296 65.0557C73.3136 63.4383 73.5383 61.5056 73.5383 61.1174C73.5383 60.7293 74.5074 58.3087 74.5074 58.3087L77.9062 59.0992Z" fill="black"/>
<path id="Vector_101" d="M78.4328 56.5645L79.4967 56.8813C79.4967 56.8813 79.983 58.5716 79.983 59.4746C79.983 60.3776 80.6607 60.4663 80.6607 60.4663C80.6607 60.4663 81.4033 61.2584 81.0118 61.835C80.6203 62.4117 80.4641 63.8469 80.4641 63.8469C80.4641 63.8469 80.5922 66.586 80.0111 66.9646C79.43 67.3432 79.3001 68.2478 79.3001 68.2478C79.3001 68.2478 78.2345 69.9666 78.2678 70.3753C78.3012 70.784 76.7808 73.5516 76.7808 73.5516C76.7808 73.5516 77.5252 70.1123 73.1959 68.6264C73.1959 68.6264 73.1643 67.4588 73.4873 67.1388C73.8104 66.8188 74.3142 66.6731 73.9982 65.0557C73.6822 63.4382 73.9069 61.5055 73.9069 61.1174C73.9069 60.7293 74.876 58.3086 74.876 58.3086L78.4328 56.5645Z" fill="white"/>
<path id="Vector_102" opacity="0.1" d="M54.9342 114.05C54.9342 114.05 56.6301 113.088 57.7432 113.787C58.8562 114.485 54.9342 114.05 54.9342 114.05Z" fill="black"/>
<path id="Vector_103" opacity="0.1" d="M68.1117 111.076C68.1117 111.076 69.6128 110.902 70.8733 112.127C72.1338 113.351 68.1117 111.076 68.1117 111.076Z" fill="black"/>
<g id="Group" opacity="0.1">
<path id="Vector_104" d="M70.308 34.4636C70.092 34.6315 69.8146 34.7519 69.6707 34.9753C69.5478 35.167 69.5443 35.403 69.446 35.6089C69.3476 35.8149 69.0615 35.9828 68.8631 35.8529C68.8175 34.4271 68.038 33.0885 67.0812 31.9479C66.8137 31.6037 66.4885 31.2991 66.1174 31.0449C65.7416 30.79 65.2739 30.6708 64.8059 30.7107C64.2792 30.7756 63.8158 31.0988 63.2838 31.1384C62.5816 31.1923 61.9513 30.7534 61.2544 30.7313C60.9711 30.7338 60.6918 30.7909 60.435 30.8989C60.1782 31.0068 59.95 31.163 59.7656 31.357C59.3991 31.7471 59.127 32.2019 58.9668 32.6925C58.6909 33.4368 58.5406 34.2144 58.5209 34.999C58.5104 35.441 58.4647 35.9923 58.0118 36.1571C58.0223 36.2741 58.0223 36.3917 58.0118 36.5088C58.4682 36.3503 58.5139 35.7927 58.5244 35.3491C58.544 34.5644 58.6943 33.7869 58.9703 33.0426C59.1306 32.5516 59.4026 32.0962 59.7691 31.7055C59.9539 31.512 60.1823 31.3563 60.439 31.2487C60.6957 31.141 60.9748 31.084 61.2579 31.0814C61.9601 31.1035 62.5921 31.5408 63.2873 31.4885C63.814 31.4489 64.281 31.1241 64.8094 31.0608C65.2775 31.0209 65.7451 31.1401 66.1209 31.395C66.492 31.6492 66.8172 31.9538 67.0847 32.298C68.0415 33.437 68.821 34.7725 68.8666 36.2014C69.065 36.3329 69.3511 36.1618 69.4495 35.959C69.5478 35.7563 69.5513 35.5186 69.6742 35.3254C69.8181 35.102 70.0955 34.9832 70.3115 34.8153C70.8592 34.3891 70.9961 33.6715 70.9751 33.0204C70.9751 32.9998 70.9751 32.9792 70.9751 32.9602C70.9417 33.5242 70.7749 34.0992 70.308 34.4636Z" fill="black"/>
<path id="Vector_105" d="M57.3482 34.351C56.9444 33.9502 56.3931 33.6825 56.0227 33.2579C55.7108 32.882 55.5326 32.4296 55.5118 31.9604C55.4566 32.5467 55.638 33.1313 56.0227 33.6064C56.3931 34.0326 56.9444 34.3003 57.3482 34.7011C57.7359 35.0931 57.9686 35.5901 58.01 36.1142C58.0369 35.7952 57.9922 35.4746 57.8784 35.1716C57.7647 34.8687 57.5843 34.5895 57.3482 34.351Z" fill="black"/>
<path id="Vector_106" d="M71.3174 29.5685C71.2138 29.9567 71.0295 30.3258 70.9452 30.7171C70.8953 30.9785 70.8771 31.2441 70.8908 31.5092C70.8967 31.3582 70.9149 31.2078 70.9452 31.0593C71.0295 30.6664 71.2138 30.2989 71.3174 29.9107C71.3778 29.6967 71.3974 29.4749 71.3753 29.2549C71.3644 29.3606 71.3451 29.4654 71.3174 29.5685Z" fill="black"/>
</g>
<path id="Vector_107" opacity="0.1" d="M23.302 120.491C32.7496 120.491 40.4085 119.381 40.4085 118.012C40.4085 116.643 32.7496 115.533 23.302 115.533C13.8543 115.533 6.1955 116.643 6.1955 118.012C6.1955 119.381 13.8543 120.491 23.302 120.491Z" fill="white"/>
<path id="Vector_108" d="M23.8532 70.5181H22.7525V92.8819H23.8532V70.5181Z" fill="#535461"/>
<path id="Vector_109" d="M30.7703 92.814L30.7018 93.8216L30.6035 95.2473L30.5631 95.8398L30.4666 97.2656L30.4244 97.8581L30.3261 99.2838L29.2166 115.454C29.1684 116.149 28.8282 116.802 28.2652 117.28C27.7023 117.757 26.9589 118.023 26.1864 118.023H20.4175C19.6452 118.023 18.9021 117.757 18.3394 117.279C17.7768 116.802 17.4369 116.149 17.3892 115.454L16.2849 99.2727L16.1866 97.847L16.1462 97.2545L16.0479 95.8287L16.0075 95.2362L15.9092 93.8105L15.839 92.8029C15.8268 92.609 15.8586 92.4149 15.9325 92.2325C16.0065 92.0501 16.1209 91.8832 16.2689 91.7421C16.4168 91.6011 16.5951 91.4888 16.7929 91.4121C16.9907 91.3355 17.2038 91.2961 17.419 91.2964H29.2183C29.4328 91.2981 29.6446 91.3394 29.8406 91.4177C30.0367 91.4961 30.2128 91.6099 30.3583 91.7522C30.5037 91.8944 30.6153 92.062 30.6861 92.2446C30.757 92.4272 30.7856 92.621 30.7703 92.814Z" fill="#3F3D56"/>
<path id="Vector_110" d="M30.7018 93.8213L30.6035 95.2423H16.0005L15.9022 93.8213H30.7018Z" fill="#9D9CB5"/>
<path id="Vector_111" d="M30.5631 95.835L30.4665 97.2576H16.1391L16.0408 95.835H30.5631Z" fill="#9D9CB5"/>
<path id="Vector_112" d="M30.4244 97.8516L30.3279 99.2726H16.2778L16.1795 97.8516H30.4244Z" fill="#9D9CB5"/>
<path id="Vector_113" d="M14.2221 78.9001C20.6317 83.0855 23.3073 89.6313 23.3073 89.6313C23.3073 89.6313 15.5826 89.3921 9.17122 85.2067C2.7598 81.0213 0.0895386 74.4771 0.0895386 74.4771C0.0895386 74.4771 7.81064 74.7147 14.2221 78.9001Z" fill="white"/>
<path id="Vector_114" d="M0.084259 74.4771C0.084259 74.4771 8.10381 78.4929 10.6757 81.8181C13.2477 85.1433 23.3072 89.6313 23.3072 89.6313" stroke="#535461" stroke-width="2" stroke-miterlimit="10"/>
<path id="Vector_115" d="M18.36 70.469C21.8484 72.7454 23.3073 76.3083 23.3073 76.3083C23.3073 76.3083 19.1026 76.1784 15.6125 73.9019C12.1224 71.6254 10.667 68.061 10.667 68.061C10.667 68.061 14.8699 68.1909 18.36 70.469Z" fill="white"/>
<path id="Vector_116" d="M10.667 68.061C10.667 68.061 15.0314 70.2472 16.4306 72.0563C17.8298 73.8655 23.3073 76.3083 23.3073 76.3083" stroke="#535461" stroke-width="2" stroke-miterlimit="10"/>
<path id="Vector_117" d="M28.3721 76.1277C24.3641 80.1024 23.5162 85.2969 23.5162 85.2969C23.5162 85.2969 29.1674 84.0454 33.1719 80.0691C37.1764 76.0928 38.0279 70.8999 38.0279 70.8999C38.0279 70.8999 32.3802 72.153 28.3721 76.1277Z" fill="white"/>
<path id="Vector_118" d="M38.0314 70.9014C38.0314 70.9014 32.8103 74.9759 31.4831 77.783C30.1558 80.5902 23.5162 85.2968 23.5162 85.2968" stroke="#535461" stroke-width="2" stroke-miterlimit="10"/>
<path id="Vector_119" d="M175.501 74.7288C175.501 74.7288 172.603 61.7163 173.712 60.0973C173.712 60.0973 173.753 58.5923 173.686 56.6739C173.686 56.601 173.686 56.5281 173.686 56.4537C173.881 56.5711 174.085 56.677 174.295 56.7705C175.317 57.2444 176.491 57.3812 177.613 57.1571L176.735 56.2747C176.525 56.064 176.305 55.8359 176.26 55.557C176.214 55.2782 176.34 55.0295 176.449 54.7808C177.283 52.8798 177.327 50.4893 175.721 49.0381C174.364 47.8183 174.034 46.2437 172.561 45.13C171.485 44.3141 170.893 43.1181 170.335 41.9616C169.862 40.9842 169.387 39.9988 169.116 38.9628C168.906 38.1533 168.821 37.3152 168.532 36.5247C168.242 35.7342 167.699 34.9659 166.852 34.6126C166.55 34.4875 166.214 34.4162 165.939 34.2498C165.577 34.0296 165.359 33.6716 165.098 33.3579C163.769 31.7738 159.318 32.7068 157.212 33.35C156.639 33.512 156.108 33.7772 155.653 34.1294L155.672 34.1009C155.688 34.0772 155.707 34.0534 155.725 34.0296C155.494 34.1979 155.295 34.3985 155.135 34.6237C154.827 35.0625 154.699 35.5742 154.443 36.0495C154.134 36.6118 152.415 38.1818 153.154 38.8139C153.206 38.8563 153.266 38.8906 153.33 38.9152C153.607 39.0194 153.913 39.047 154.208 38.9945L154.176 39.0626C153.924 39.6203 153.794 40.217 153.795 40.8194C153.795 43.4222 156.174 45.5324 159.111 45.5324C159.663 45.5328 160.212 45.4564 160.739 45.3058C160.751 45.366 160.761 45.4262 160.774 45.4864C160.774 45.5102 160.782 45.5339 160.786 45.5577L160.693 45.6749C160.688 45.6677 160.683 45.6608 160.677 45.6543L157.921 49.13C157.499 49.3978 155.073 50.9819 154.936 52.1701C154.792 53.4707 154.648 54.9931 154.648 54.9931L154.629 55.3194C154.509 55.4102 154.368 55.4764 154.216 55.5133C154.065 55.5502 153.906 55.5571 153.751 55.5333C152.891 55.4065 152.891 58.3848 152.891 58.3848C152.891 58.3848 152.319 58.8601 151.925 58.4482C151.532 58.0363 150.493 59.4319 150.493 59.4319L143.98 59.6854L143.83 59.6933L143.479 58.7127C143.442 58.6093 143.36 58.5235 143.253 58.4739C143.145 58.4244 143.02 58.4151 142.905 58.4482C142.878 58.4562 142.852 58.4663 142.826 58.4783L142.802 58.4909L142.756 58.5195L142.733 58.5385C142.721 58.5488 142.709 58.5599 142.698 58.5717L142.677 58.5939L142.666 58.6034C142.626 58.654 142.599 58.7124 142.588 58.7741C142.577 58.8357 142.582 58.8988 142.603 58.9583L142.905 59.7995C141.648 60.0276 140.363 60.6708 141.411 62.4419L136.099 61.5563L137.818 62.8585L146.69 64.5108C146.573 64.7009 146.65 64.9766 147.017 65.3647C148.597 67.0392 151.476 67.4938 152.635 67.6111C152.941 68.2287 153.323 68.8133 153.774 69.3537L153.674 71.0218C153.674 71.0218 150.74 83.7364 150.203 84.3812C150.474 84.1039 150.723 83.809 150.946 83.4988C150.094 86.1111 148.904 89.6866 148.592 90.222C148.089 91.0775 147.624 94.5389 148.197 94.7607C148.372 94.8288 148.874 94.7956 149.591 94.7465V95.0332L149.559 105.899C149.559 105.899 149.703 112.564 149.308 113.199C148.913 113.834 148.808 115.167 148.808 115.167C148.808 115.167 147.227 117.795 145.976 118.851C145.967 118.86 145.958 118.867 145.948 118.873L145.909 118.626C145.909 118.626 144.405 120.34 141.076 120.244C141.076 120.244 139.073 121.419 142.043 121.483C145.014 121.546 148.808 121.388 148.808 121.388C148.808 121.388 151.457 117.744 153.676 118.219V120.98H154.355V118.175C154.67 117.988 154.94 117.745 155.148 117.461C155.356 117.177 155.498 116.858 155.565 116.523C155.623 116.177 155.58 115.824 155.441 115.498C155.302 115.173 155.071 114.885 154.771 114.664C154.637 114.554 154.528 114.421 154.454 114.271C154.379 114.122 154.34 113.96 154.338 113.796L154.313 113.815C154.313 113.76 154.297 113.703 154.29 113.644C154.095 112.218 153.851 109.277 154.713 107.1C155.895 104.115 156.253 99.9584 155.393 97.4839C155.115 96.6929 154.887 95.8885 154.71 95.0744C154.689 94.9714 154.669 94.8732 154.652 94.7813C155.24 94.8531 155.822 94.9589 156.395 95.0981C158.388 95.594 162.747 95.6859 166.469 95.6589C166.478 95.7508 166.488 95.8475 166.5 95.9441C166.567 96.6158 166.706 97.2801 166.915 97.9275C167.382 99.1948 167.596 104.782 167.596 104.782C167.596 104.782 168.198 109.376 167.87 111.246C167.694 112.285 167.519 113.329 167.419 114.378V114.398C167.419 114.398 166.432 116.933 165.71 118.31C165.693 118.344 165.674 118.379 165.656 118.412C165.464 118.428 165.274 118.466 165.092 118.525C165.092 118.525 164.125 120.268 163.161 120.556C162.197 120.844 162.517 121.793 164.699 121.445C166.881 121.096 170.177 120.811 170.177 120.811L170.319 119.033L170.989 118.276L170.814 120.049L171.528 119.922L171.434 117.766L172.531 116.527C172.531 116.527 173.856 115.463 171.887 113.368V113.414C171.865 113.384 171.846 113.353 171.823 113.323V113.313C171.497 112.857 171.237 112.006 171.713 110.496C172.573 107.768 173.073 105.292 173.073 105.292C173.073 105.292 174.994 98.6594 172.685 95.5211H172.787C172.551 95.0795 172.383 94.6103 172.29 94.127C172.279 94.07 172.268 94.0114 172.259 93.9512C173.967 93.8625 175.644 93.5837 177.011 92.9817C177.006 92.9753 176.182 77.2349 175.501 74.7288ZM153.814 63.7504V63.7821L153.463 63.7979L153.814 63.7504ZM152.61 63.9009C152.552 63.9125 152.498 63.9358 152.452 63.969C152.301 64.1618 152.206 64.3857 152.177 64.6201L151.629 64.5092C151.629 64.5092 151.244 64.4348 150.691 64.3508L150.43 64.1132C151.149 64.0593 151.897 63.9801 152.61 63.9009Z" fill="url(#paint1_linear_279_461)"/>
<path id="Vector_120" d="M170.733 117.789L170.524 120.033L171.225 119.907L171.119 117.472L170.733 117.789Z" fill="#1D2366"/>
<path id="Vector_121" d="M154.752 107.13C153.908 109.3 154.146 112.229 154.336 113.652C154.406 114.178 154.471 114.498 154.471 114.498C154.471 114.498 153.209 117.093 153.103 117.191C152.998 117.289 149.389 119.277 149.389 119.277L146.866 120.607C146.866 120.607 144.306 119.594 145.533 119.246C145.784 119.155 146.01 119.016 146.195 118.839C147.424 117.785 148.967 115.167 148.967 115.167C148.967 115.167 149.073 113.837 149.459 113.205C149.845 112.573 149.705 105.931 149.705 105.931L149.734 95.1029V93.6914L154.536 93.7231C154.566 94.2023 154.636 94.6788 154.743 95.1489C154.916 95.9602 155.139 96.762 155.412 97.5505C156.258 100.02 155.907 104.156 154.752 107.13Z" fill="#FFB0B1"/>
<path id="Vector_122" opacity="0.1" d="M154.471 114.498C154.471 114.498 153.209 117.093 153.103 117.191C152.998 117.289 149.389 119.278 149.389 119.278L146.866 120.607C146.866 120.607 144.306 119.594 145.533 119.246C145.784 119.155 146.01 119.016 146.195 118.839L146.304 119.531L147.145 119.499L154.343 113.655C154.406 114.178 154.471 114.498 154.471 114.498Z" fill="black"/>
<path id="Vector_123" d="M154.383 113.803L147.145 119.686L146.304 119.718L146.128 118.609C146.128 118.609 144.657 120.317 141.388 120.222C141.388 120.222 139.426 121.393 142.335 121.456C145.244 121.519 148.959 121.361 148.959 121.361C148.959 121.361 151.553 117.717 153.725 118.192V120.944H154.392V118.167C154.702 117.979 154.967 117.736 155.17 117.453C155.374 117.169 155.511 116.852 155.575 116.52C155.633 116.177 155.592 115.827 155.457 115.503C155.321 115.179 155.095 114.892 154.801 114.669C154.67 114.558 154.565 114.424 154.493 114.275C154.421 114.126 154.384 113.965 154.383 113.803Z" fill="#1D2366"/>
<path id="Vector_124" d="M171.4 110.514C170.933 112.019 171.188 112.867 171.507 113.321V113.331C171.917 113.892 172.202 114.52 172.346 115.18L172.375 115.322L169.081 119.655L167.294 120.289C167.294 120.289 164.42 119.403 164.945 119.149C165.077 119.088 165.282 118.758 165.517 118.304C166.219 116.933 167.189 114.405 167.189 114.405V114.384C167.29 113.34 167.452 112.299 167.631 111.263C167.952 109.399 167.362 104.822 167.362 104.822C167.362 104.822 167.152 99.2569 166.695 97.9912C166.489 97.3476 166.352 96.6877 166.286 96.0205C166.191 95.2284 166.17 94.5757 166.17 94.5757C166.17 94.5757 168.063 92.1994 171.532 94.7658C171.809 94.9705 172.053 95.2094 172.257 95.4755C174.653 98.552 172.724 105.329 172.724 105.329C172.724 105.329 172.241 107.794 171.4 110.514Z" fill="#FFB0B1"/>
<path id="Vector_125" opacity="0.1" d="M172.38 115.322L169.086 119.655L167.299 120.288C167.299 120.288 164.425 119.403 164.95 119.149C165.082 119.088 165.287 118.758 165.523 118.303C166.739 118.294 167.369 119.34 167.369 119.34L168.911 119.118C168.911 119.118 170.944 115.512 171.4 115.292C171.857 115.072 171.47 113.646 171.47 113.646V113.283C171.483 113.296 171.493 113.31 171.507 113.323V113.332C171.917 113.894 172.202 114.522 172.347 115.181L172.38 115.322Z" fill="black"/>
<path id="Vector_126" d="M167.475 119.433C167.475 119.433 166.597 117.979 164.915 118.516C164.915 118.516 163.969 120.258 163.023 120.54C162.076 120.822 162.392 121.773 164.531 121.426C166.669 121.079 169.892 120.792 169.892 120.792L170.033 119.019L172.206 116.521C172.206 116.521 173.502 115.461 171.574 113.375V113.738C171.574 113.738 171.96 115.164 171.504 115.384C171.047 115.604 169.021 119.211 169.021 119.211L167.475 119.433Z" fill="#1D2366"/>
<path id="Vector_127" opacity="0.1" d="M154.541 93.7202C154.572 94.1993 154.641 94.6759 154.748 95.1459C152.772 94.8845 150.937 95.0144 149.734 95.1V93.6885L154.541 93.7202Z" fill="black"/>
<path id="Vector_128" opacity="0.1" d="M172.452 95.8696C172.452 95.8696 169.643 95.9932 166.293 96.0185C166.198 95.2264 166.177 94.5737 166.177 94.5737C166.177 94.5737 168.07 92.1975 171.539 94.7638C171.816 94.9685 172.06 95.2074 172.264 95.4736C172.318 95.6086 172.381 95.7408 172.452 95.8696Z" fill="black"/>
<path id="Vector_129" d="M172.452 95.5847C172.452 95.5847 160.149 96.1218 156.399 95.1728C152.649 94.2239 148.932 95.0461 148.372 94.8259C147.812 94.6057 148.267 91.1569 148.758 90.3031C149.25 89.4492 151.947 80.8138 151.947 80.8138L154.541 68.6062L157.275 67.9265L157.468 67.8774L162.231 66.6925L165.721 65.8228C165.721 65.8228 172.661 90.2714 172.066 92.0742C171.849 92.7645 171.815 93.4908 171.964 94.1954C172.055 94.6766 172.219 95.1441 172.452 95.5847Z" fill="#1D2366"/>
<path id="Vector_130" d="M145.496 60.2573C145.496 60.2573 143.039 62.6336 144.9 63.958C146.761 65.2823 147.984 64.0847 147.984 64.0847L145.496 60.2573Z" fill="#C7DAF5"/>
<path id="Vector_131" opacity="0.1" d="M145.496 60.2573C145.496 60.2573 143.039 62.6336 144.9 63.958C146.761 65.2823 147.984 64.0847 147.984 64.0847L145.496 60.2573Z" fill="black"/>
<path id="Vector_132" d="M165.354 44.6342C165.354 44.6342 165.066 44.8813 164.632 45.2457C164.014 45.7669 163.1 46.5289 162.289 47.1673C161.165 48.0497 160.238 48.6976 160.57 48.1447C160.902 47.5918 160.839 46.6287 160.674 45.7273C160.661 45.6671 160.651 45.6069 160.638 45.5482C160.502 44.8862 160.321 44.2324 160.096 43.5902C160.096 43.5902 161.911 41.4737 162.915 40.6389C163.289 40.322 163.551 40.1921 163.567 40.4123C163.584 40.7086 163.83 41.3628 164.136 42.0567C164.144 42.0789 164.153 42.0995 164.164 42.1217C164.367 42.5969 164.597 43.0848 164.799 43.5062C165.108 44.1526 165.354 44.6342 165.354 44.6342Z" fill="#FFB0B1"/>
<path id="Vector_133" opacity="0.1" d="M164.164 42.1218C163.993 42.9497 163.579 43.7211 162.965 44.3554C162.351 44.9896 161.56 45.4635 160.674 45.7273C160.534 45.0042 160.341 44.2902 160.096 43.5903C160.096 43.5903 163.514 39.6061 163.567 40.4124C163.579 40.7182 163.846 41.3962 164.164 42.1218Z" fill="black"/>
<path id="Vector_134" opacity="0.1" d="M160.333 46.7919L160.775 46.2295C160.775 46.2295 161.069 47.8422 162.147 47.1309C163.224 46.4196 163.277 52.4838 163.277 52.4838L162.12 68.0927L153.76 67.6412L153.997 60.099L154.943 56.2969L157.284 50.7697L158.676 48.9432L160.333 46.7919Z" fill="black"/>
<path id="Vector_135" d="M163.277 52.5806L162.224 66.6941L162.113 68.1895L157.452 67.9376L157.277 67.9281L153.765 67.738L154.002 60.1942L154.949 56.3922L157.289 50.8649L158.681 49.0384L160.338 46.8792L160.781 46.3184C160.781 46.3184 161.074 47.9311 162.152 47.2198L162.175 47.2055C163.228 46.6035 163.277 52.5806 163.277 52.5806Z" fill="#1D2366"/>
<path id="Vector_136" d="M155.066 55.0708C155.066 55.0708 154.647 55.8629 153.804 55.7346C152.961 55.6063 152.963 58.5861 152.963 58.5861C152.963 58.5861 152.403 59.0613 152.017 58.6495C151.631 58.2376 150.612 59.6301 150.612 59.6301L144.232 59.8835C144.232 59.8835 147.071 61.0542 146.515 64.5965C146.515 64.5965 156.153 64.0578 156.469 63.2357C156.785 62.4135 155.066 55.0708 155.066 55.0708Z" fill="white"/>
<path id="Vector_137" opacity="0.03" d="M155.066 55.0708C155.066 55.0708 154.647 55.8629 153.804 55.7346C152.961 55.6063 152.963 58.5861 152.963 58.5861C152.963 58.5861 152.403 59.0613 152.017 58.6495C151.631 58.2376 150.612 59.6301 150.612 59.6301L144.232 59.8835C144.232 59.8835 147.071 61.0542 146.515 64.5965C146.515 64.5965 156.153 64.0578 156.469 63.2357C156.785 62.4135 155.066 55.0708 155.066 55.0708Z" fill="black"/>
<path id="Vector_138" d="M136.525 61.7451L138.207 63.041L152.052 65.666L150.335 64.0849L136.525 61.7451Z" fill="white"/>
<path id="Vector_139" d="M160.359 47.2908C160.129 47.6076 159.471 49.2298 158.921 50.6461C158.463 51.8263 158.081 52.8639 158.081 52.8639C158.081 52.8639 157.187 58.1139 156.731 59.0628C156.274 60.0117 156.522 63.7124 156.522 63.7124L154.82 72.8515C154.82 72.8515 154.05 77.5644 152.859 80.3795C151.685 83.1502 150.377 84.4493 150.337 84.4905C150.863 83.8473 153.734 71.1834 153.734 71.1834L154.682 55.2117C154.682 55.2117 154.82 53.694 154.961 52.3966C155.101 51.0991 157.945 49.328 157.945 49.328L160.688 45.8096C160.963 46.1422 160.779 46.7221 160.359 47.2908Z" fill="white"/>
<path id="Vector_140" d="M153.209 67.8169C153.209 67.8169 149.171 67.6585 147.215 65.5389C145.259 63.4193 151.736 64.6929 151.736 64.6929L153.419 65.0415L153.209 67.8169Z" fill="#FFB0B1"/>
<path id="Vector_141" opacity="0.1" d="M172.066 92.0759C171.849 92.7662 171.815 93.4925 171.964 94.1971C167.559 94.4791 162.847 93.405 162.847 93.405C161.969 94.1337 159.657 95.2078 159.657 95.2078L158.397 81.1086C157.591 79.2076 157.275 69.2478 157.275 69.2478C157.275 69.2478 157.347 68.7267 157.45 67.9457C157.45 67.9266 157.45 67.906 157.459 67.887C157.773 65.7056 158.397 61.6105 158.702 61.0576C159.123 60.2972 157.406 58.2742 157.406 58.2742L158.188 52.2623L158.282 51.5367C159.929 50.873 161.191 48.7533 161.191 48.7533L162.161 47.2214C163.214 46.6115 163.268 52.5886 163.268 52.5886L162.215 66.7021L165.705 65.8324C165.705 65.8324 172.661 90.2731 172.066 92.0759Z" fill="black"/>
<path id="Vector_142" d="M176.586 93.05C171.785 95.2013 163.058 93.2084 163.058 93.2084C162.18 93.9371 159.868 95.0112 159.868 95.0112L158.605 80.912C157.801 79.011 157.485 69.0513 157.485 69.0513C157.485 69.0513 158.5 61.6199 158.922 60.8611C159.044 60.6393 158.985 60.3098 158.839 59.9549C158.123 58.2659 157.859 56.448 158.07 54.6495L158.407 52.0657L158.5 51.3418C160.149 50.6764 161.411 48.5568 161.411 48.5568L162.289 47.169L163.904 44.6122L164.669 43.4019L164.799 43.508L165.791 44.3191C165.791 44.3191 166.212 44.6359 166.844 45.1112C168.219 46.1567 170.594 47.9976 171.82 49.1239C172.898 50.1156 173.238 53.9731 173.337 56.8769C173.402 58.789 173.363 60.2876 173.363 60.2876C172.276 61.9019 175.119 74.8621 175.119 74.8621C175.78 77.3666 176.586 93.05 176.586 93.05Z" fill="white"/>
<path id="Vector_143" opacity="0.03" d="M167.369 48.5252C167.369 48.5252 164.074 54.1855 164.457 56.3368C164.84 58.4881 165.928 60.923 165.403 61.4917C165.223 61.7072 164.99 61.8821 164.722 62.0027C164.454 62.1234 164.159 62.1865 163.86 62.1872C163.333 62.2188 161.929 63.1044 161.929 63.1995C161.929 63.2945 160.631 63.2945 159.471 63.7381C158.311 64.1816 156.597 64.4335 156.597 64.4335C156.597 64.4335 153.261 64.3385 152.951 64.6236C152.64 64.9088 152.32 66.6149 152.986 67.9757C153.651 69.3366 154.39 70.352 154.949 70.5374C155.507 70.7227 159.05 69.6518 161.924 69.3983C164.797 69.1449 167.917 67.0902 167.917 67.0902C167.917 67.0902 171.353 65.9813 171.955 64.1167C172.557 62.2521 171.219 52.0041 171.219 52.0041C171.219 52.0041 170.208 47.2278 167.369 48.5252Z" fill="black"/>
<path id="Vector_144" opacity="0.03" d="M166.948 48.0497C166.948 48.0497 163.653 53.7115 164.039 55.8612C164.425 58.011 165.51 60.4474 164.984 61.0178C164.804 61.2335 164.571 61.4086 164.304 61.5292C164.036 61.6499 163.741 61.7129 163.442 61.7132C162.915 61.7449 161.511 62.6304 161.511 62.7255C161.511 62.8205 160.214 62.8205 159.053 63.2625C157.893 63.7045 156.179 63.958 156.179 63.958C156.179 63.958 152.844 63.8629 152.535 64.1481C152.226 64.4332 151.903 66.141 152.57 67.5002C153.237 68.8594 153.974 69.8765 154.533 70.0618C155.091 70.2472 158.634 69.1763 161.507 68.9244C164.381 68.6725 167.501 66.6147 167.501 66.6147C167.501 66.6147 170.935 65.5057 171.53 63.6427C172.125 61.7797 170.795 51.5285 170.795 51.5285C170.795 51.5285 169.787 46.7538 166.948 48.0497Z" fill="black"/>
<path id="Vector_145" d="M167.266 48.2398C167.266 48.2398 163.971 53.9017 164.357 56.0514C164.743 58.2011 165.828 60.6376 165.303 61.2063C165.123 61.4225 164.89 61.598 164.623 61.719C164.355 61.84 164.059 61.9031 163.76 61.9033C163.233 61.935 161.829 62.8206 161.829 62.914C161.829 63.0075 160.533 63.0091 159.371 63.4527C158.209 63.8962 156.497 64.1481 156.497 64.1481C156.497 64.1481 153.161 64.0531 152.851 64.3382C152.54 64.6234 152.22 66.3311 152.886 67.6903C153.551 69.0496 154.29 70.0666 154.849 70.252C155.407 70.4373 158.95 69.3664 161.824 69.1129C164.697 68.8595 167.817 66.8048 167.817 66.8048C167.817 66.8048 171.253 65.6959 171.855 63.8313C172.457 61.9667 171.128 51.7187 171.128 51.7187C171.128 51.7187 170.103 46.9503 167.266 48.2398Z" fill="white"/>
<path id="Vector_146" opacity="0.1" d="M167.194 63.4256C167.194 63.4256 164.56 62.9503 165.477 63.7424C166.393 64.5345 166.388 65.2284 167.51 65.1967C168.632 65.165 167.194 63.4256 167.194 63.4256Z" fill="black"/>
<path id="Vector_147" opacity="0.1" d="M171.644 80.4683C171.644 80.4683 170.454 81.1954 172.731 82.8715C175.008 84.5475 171.644 80.4683 171.644 80.4683Z" fill="black"/>
<path id="Vector_148" opacity="0.1" d="M169.373 86.4453C169.373 86.5404 168.951 89.9305 170.528 90.778C172.104 91.6256 169.373 86.4453 169.373 86.4453Z" fill="black"/>
<path id="Vector_149" d="M144.341 59.8755C143.07 59.9151 140.325 60.2652 141.748 62.6621C143.007 64.7833 145.123 63.3654 146.313 62.2898C146.022 61.2869 145.317 60.4228 144.341 59.8755Z" fill="#FFB0B1"/>
<path id="Vector_150" opacity="0.1" d="M166.844 45.2076C165.496 46.0393 164.366 46.7411 164.144 46.8868C163.54 47.2908 162.389 49.6623 161.646 50.8726C161.055 51.8469 159.132 52.0972 158.407 52.159L158.5 51.435C160.149 50.7697 161.411 48.65 161.411 48.65L164.669 43.4951L165.791 44.4155C165.791 44.4155 166.212 44.7324 166.844 45.2076Z" fill="black"/>
<path id="Vector_151" d="M166.844 45.1129C165.496 45.9446 164.366 46.6464 164.144 46.7937C163.54 47.1961 162.389 49.5676 161.646 50.7779C161.055 51.7522 159.132 52.0025 158.407 52.0643L158.5 51.3403C160.149 50.6749 161.411 48.5553 161.411 48.5553L164.669 43.4004L165.791 44.3176C165.791 44.3176 166.212 44.6313 166.844 45.1129Z" fill="#DCE7FF"/>
<path id="Vector_152" d="M164.25 41.0763C164.25 42.0273 163.931 42.956 163.333 43.7393C162.628 44.6655 161.577 45.3327 160.373 45.6198C159.169 45.907 157.89 45.7951 156.77 45.3045C155.649 44.8139 154.76 43.977 154.265 42.9457C153.77 41.9144 153.7 40.7571 154.07 39.6837C154.439 38.6102 155.223 37.6919 156.278 37.0952C157.334 36.4985 158.592 36.263 159.823 36.4315C161.055 36.6 162.178 37.1612 162.991 38.0134C163.803 38.8656 164.249 39.9523 164.25 41.0763Z" fill="#FFB0B1"/>
<path id="Vector_153" opacity="0.1" d="M173.337 56.8785C172.624 56.4827 172.043 55.9199 171.657 55.2499C171.363 54.7272 171.169 54.1236 170.668 53.7529C170.217 53.4202 169.615 53.3394 169.053 53.1905C167.206 52.6978 165.658 51.177 165.6 49.4408C165.572 48.6233 165.854 47.8075 165.726 46.998C165.653 46.5398 165.451 46.1062 165.14 45.7385C164.985 45.5627 164.815 45.398 164.632 45.2459C164.387 45.0367 164.129 44.834 163.904 44.6122C163.762 44.4749 163.639 44.3234 163.535 44.1607C163.452 44.0276 163.384 43.8868 163.333 43.7409C162.982 42.7714 163.302 41.6213 162.915 40.6407L162.894 40.5868C162.749 40.2383 162.452 39.8898 162.039 39.8628C161.627 39.8359 161.274 40.1448 160.881 40.2826C160.057 40.5709 159.169 40.0799 158.483 39.5793C157.796 39.0787 157.022 38.5068 156.149 38.6177C155.572 38.6921 155.115 39.047 154.583 39.2307C154.463 39.2727 154.339 39.305 154.213 39.3274C154.663 38.3143 155.49 37.4743 156.552 36.9518C157.614 36.4292 158.845 36.2566 160.032 36.4638C161.22 36.6709 162.29 37.2448 163.06 38.0868C163.83 38.9288 164.25 39.9864 164.25 41.0779C164.25 41.4075 164.212 41.7362 164.136 42.0585C164.144 42.0807 164.153 42.1013 164.164 42.1234C164.367 42.5987 164.597 43.0866 164.799 43.508L165.791 44.3191C165.791 44.3191 166.212 44.636 166.844 45.1112C168.219 46.1568 170.594 47.9976 171.82 49.1239C172.898 50.1188 173.235 53.9747 173.337 56.8785Z" fill="black"/>
<path id="Vector_154" d="M154.522 36.3364C154.773 35.8754 154.898 35.359 155.198 34.9217C155.639 34.2881 156.407 33.8825 157.198 33.637C159.26 32.9954 163.619 32.0639 164.922 33.637C165.178 33.9538 165.391 34.3055 165.745 34.5241C166.016 34.6904 166.342 34.7617 166.639 34.8869C167.469 35.2386 168 36.0053 168.282 36.7879C168.565 37.5705 168.649 38.4101 168.856 39.2164C169.121 40.2509 169.587 41.2315 170.05 42.2058C170.596 43.3559 171.176 44.5488 172.229 45.3615C173.667 46.4704 173.984 48.0403 175.319 49.257C176.899 50.7017 176.848 53.0859 176.033 54.979C175.926 55.2277 175.805 55.4875 175.847 55.7521C175.889 56.0167 176.107 56.2574 176.312 56.4681L177.176 57.3474C175.133 57.7925 172.821 56.8293 171.869 55.139C171.576 54.6162 171.381 54.0142 170.879 53.642C170.429 53.3093 169.825 53.2301 169.265 53.0812C167.419 52.5869 165.87 51.0645 165.812 49.3283C165.784 48.5124 166.067 47.6965 165.939 46.8886C165.867 46.4274 165.665 45.9907 165.35 45.6213C164.868 45.0526 164.139 44.6708 163.746 44.0371C163.08 42.9773 163.586 41.6006 163.107 40.4632C162.959 40.1147 162.664 39.7662 162.252 39.7392C161.839 39.7123 161.486 40.0212 161.091 40.159C160.27 40.4473 159.381 39.9578 158.695 39.4557C158.009 38.9535 157.234 38.3832 156.36 38.4956C155.782 38.5685 155.328 38.9234 154.796 39.1087C154.403 39.245 153.606 39.3669 153.261 39.0675C152.535 38.464 154.218 36.9004 154.522 36.3364Z" fill="#591D4B"/>
<path id="Vector_155" opacity="0.1" d="M172.357 54.6163C172.062 54.0935 171.869 53.4915 171.367 53.1208C170.917 52.7882 170.314 52.7074 169.752 52.5585C167.907 52.0658 166.358 50.5434 166.298 48.8071C166.27 47.9913 166.553 47.1738 166.427 46.3659C166.353 45.9076 166.151 45.474 165.839 45.1065C165.354 44.5378 164.625 44.156 164.234 43.5223C163.569 42.4641 164.074 41.0874 163.593 39.9484C163.447 39.6015 163.151 39.2529 162.74 39.2244C162.329 39.1959 161.973 39.508 161.579 39.6458C160.758 39.9341 159.868 39.443 159.183 38.9424C158.498 38.4418 157.721 37.87 156.848 37.9808C156.271 38.0553 155.814 38.4102 155.284 38.5939C154.891 38.7302 154.092 38.8537 153.748 38.5543C153.024 37.9207 154.708 36.3602 155.01 35.7994C155.261 35.3369 155.386 34.822 155.688 34.3848C155.703 34.361 155.721 34.3372 155.739 34.3135C155.513 34.4823 155.318 34.6823 155.161 34.906C154.861 35.3432 154.736 35.8565 154.485 36.3206C154.181 36.8814 152.498 38.4466 153.223 39.0755C153.574 39.3765 154.364 39.2529 154.757 39.1167C155.284 38.9314 155.744 38.5765 156.321 38.5036C157.199 38.3911 157.972 38.963 158.656 39.4636C159.341 39.9642 160.236 40.4553 161.055 40.167C161.448 40.0292 161.792 39.7187 162.213 39.7472C162.635 39.7757 162.915 40.1227 163.068 40.4712C163.547 41.6086 163.042 42.9853 163.707 44.0451C164.1 44.6677 164.829 45.0574 165.312 45.6293C165.626 45.9987 165.829 46.4354 165.9 46.8966C166.028 47.7045 165.745 48.5204 165.774 49.3362C165.832 51.0788 167.38 52.5949 169.227 53.0892C169.783 53.2381 170.391 53.3173 170.84 53.65C171.344 54.0222 171.542 54.6242 171.83 55.147C172.782 56.8373 175.094 57.8005 177.138 57.3554L176.73 56.9403C174.959 56.9641 173.166 56.0547 172.357 54.6163Z" fill="black"/>
<path id="Vector_156" opacity="0.1" d="M160.254 47.3857C160.024 47.7026 159.366 49.3248 158.816 50.741C158.302 50.5604 157.835 49.4087 157.835 49.4087L160.577 45.8887C160.858 46.2372 160.674 46.8154 160.254 47.3857Z" fill="black"/>
<path id="Vector_157" d="M160.359 47.2909C160.129 47.6077 159.471 49.2299 158.921 50.6462C158.407 50.4672 157.94 49.3139 157.94 49.3139L160.682 45.7954C160.963 46.1423 160.779 46.7222 160.359 47.2909Z" fill="#DCE7FF"/>
<path id="Vector_158" d="M144.415 63.4749L142.895 59.1485C142.877 59.0979 142.87 59.0445 142.875 58.9915C142.88 58.9385 142.896 58.8869 142.923 58.8396C142.95 58.7924 142.988 58.7504 143.033 58.7162C143.078 58.6819 143.13 58.656 143.186 58.64C143.299 58.6081 143.422 58.6179 143.527 58.6671C143.632 58.7164 143.712 58.8012 143.748 58.903L145.268 63.2246L145.117 64.1292L144.415 63.4749Z" fill="#BE8B87"/>
<path id="Vector_159" opacity="0.1" d="M143.039 58.7683C143.152 58.736 143.275 58.7455 143.381 58.7948C143.486 58.8441 143.566 58.9291 143.602 59.0313L145.123 63.353L145.008 64.031L145.119 64.1355L145.27 63.231L143.741 58.9093C143.705 58.8075 143.625 58.7227 143.52 58.6735C143.415 58.6242 143.292 58.6145 143.179 58.6464C143.084 58.6742 143.002 58.73 142.946 58.8048C142.975 58.7903 143.007 58.7781 143.039 58.7683Z" fill="white"/>
<path id="Vector_160" d="M144.415 63.4749L145.268 63.231L145.144 63.9724L145.117 64.1355L144.868 63.9011L144.415 63.4749Z" fill="#EFC8C4"/>
<path id="Vector_161" d="M144.868 63.9011C144.883 63.8842 144.901 63.8701 144.922 63.8599C144.935 63.8529 144.949 63.8491 144.964 63.8491C144.978 63.8491 144.993 63.8529 145.005 63.8599C145.017 63.8729 145.027 63.8873 145.035 63.9027C145.046 63.9202 145.062 63.9351 145.081 63.9463C145.1 63.9575 145.121 63.9648 145.144 63.9676L145.117 64.126L144.868 63.9011Z" fill="#727A9C"/>
<path id="Vector_162" d="M142.886 60.6851C142.886 60.6851 145.935 60.6692 145.217 61.8399C144.499 63.0106 143.377 63.1516 143.377 63.1516L142.886 60.6851Z" fill="#FFB0B1"/>
<path id="Vector_163" d="M123.92 8.146H123.789C118.55 8.146 113.917 10.6474 111.252 14.3386C108.587 10.6474 103.954 8.146 98.7152 8.146H98.5836C94.6521 8.1798 90.8942 9.61231 88.1266 12.1322C85.359 14.6521 83.8054 18.0558 83.8032 21.6036C83.8032 26.0092 85.9415 32.2604 90.1111 37.4042C98.0551 47.2055 111.252 55.7807 111.252 55.7807C111.252 55.7807 124.449 47.2071 132.391 37.4042C136.562 32.2604 138.699 26.0092 138.699 21.6036C138.697 18.0561 137.143 14.6526 134.376 12.1328C131.609 9.61291 127.851 8.18022 123.92 8.146ZM122.037 38.1583C121.44 38.1562 120.858 37.9914 120.367 37.6855C119.876 37.3796 119.499 36.9469 119.285 36.4442H116.154C115.947 36.443 115.747 36.3838 115.579 36.2747C115.412 36.1657 115.287 36.0122 115.221 35.8359L114.259 33.2204L111.215 42.8189C111.156 43.0037 111.032 43.1661 110.861 43.2818C110.691 43.3975 110.484 43.4602 110.271 43.4605H110.209C109.987 43.4508 109.775 43.3725 109.608 43.2387C109.442 43.1049 109.332 42.9238 109.296 42.7254L106.159 25.6987L103.866 35.7741C103.814 35.9655 103.691 36.1355 103.519 36.2569C103.347 36.3784 103.135 36.4443 102.916 36.4442H98.5046C98.3723 36.4492 98.2403 36.4301 98.1164 36.3879C97.9926 36.3457 97.8795 36.2814 97.7839 36.1987C97.6884 36.116 97.6123 36.0168 97.5604 35.9069C97.5085 35.7971 97.4817 35.6789 97.4817 35.5594C97.4817 35.44 97.5085 35.3218 97.5604 35.2119C97.6123 35.102 97.6884 35.0028 97.7839 34.9201C97.8795 34.8375 97.9926 34.7731 98.1164 34.7309C98.2403 34.6887 98.3723 34.6696 98.5046 34.6747H102.144L105.392 21.1283C105.445 20.9281 105.574 20.7507 105.756 20.6266C105.938 20.5025 106.162 20.4394 106.391 20.448C106.619 20.4566 106.836 20.5364 107.006 20.6738C107.176 20.8112 107.288 20.9976 107.323 21.2012L110.527 38.5701L113.255 29.9823C113.312 29.8014 113.432 29.642 113.597 29.5278C113.763 29.4136 113.965 29.3507 114.173 29.3486H114.193C114.399 29.3487 114.6 29.4075 114.767 29.5168C114.934 29.626 115.059 29.7801 115.123 29.957L116.863 34.6794H119.247C119.416 34.2147 119.725 33.8013 120.138 33.4848C120.552 33.1683 121.054 32.9611 121.59 32.8859C122.126 32.8108 122.674 32.8707 123.174 33.059C123.675 33.2473 124.108 33.5567 124.425 33.953C124.743 34.3493 124.934 34.8172 124.975 35.305C125.017 35.7927 124.909 36.2814 124.662 36.7171C124.416 37.1528 124.04 37.5186 123.578 37.774C123.116 38.0294 122.584 38.1646 122.042 38.1646L122.037 38.1583Z" fill="white"/>
</g>
<defs>
<linearGradient id="paint0_linear_279_461" x1="62.557" y1="122.753" x2="62.557" y2="25.2726" gradientUnits="userSpaceOnUse">
<stop stop-color="#808080" stop-opacity="0.25"/>
<stop offset="0.54" stop-color="#808080" stop-opacity="0.12"/>
<stop offset="1" stop-color="#808080" stop-opacity="0.1"/>
</linearGradient>
<linearGradient id="paint1_linear_279_461" x1="156.85" y1="121.521" x2="156.85" y2="32.4898" gradientUnits="userSpaceOnUse">
<stop stop-color="#808080" stop-opacity="0.25"/>
<stop offset="0.54" stop-color="#808080" stop-opacity="0.12"/>
<stop offset="1" stop-color="#808080" stop-opacity="0.1"/>
</linearGradient>
<clipPath id="clip0_279_461">
<rect width="194" height="124" fill="white"/>
</clipPath>
</defs>
</svg>
