<svg width="58" height="66" viewBox="0 0 58 66" fill="none" xmlns="http://www.w3.org/2000/svg">
  <g clip-path="url(#clip0_74_475)">
    <path
      d="M29 33C24.605 33 20.39 31.2616 17.2822 28.1673C14.1745 25.0729 12.4286 20.8761 12.4286 16.5C12.4286 12.1239 14.1745 7.92709 17.2822 4.83274C20.39 1.73839 24.605 0 29 0C33.395 0 37.61 1.73839 40.7178 4.83274C43.8255 7.92709 45.5714 12.1239 45.5714 16.5C45.5714 20.8761 43.8255 25.0729 40.7178 28.1673C37.61 31.2616 33.395 33 29 33ZM27.071 46.3031L24.6629 42.307C23.8344 40.9277 24.8312 39.1875 26.4366 39.1875H29H31.5504C33.1558 39.1875 34.1527 40.9406 33.3241 42.307L30.9161 46.3031L35.2402 62.2746L39.9009 43.3383C40.1598 42.2941 41.1696 41.6109 42.2183 41.8816C51.2938 44.1504 58 52.323 58 62.0426C58 64.234 56.2134 66 54.0254 66H36.9621C36.6902 66 36.4442 65.9484 36.2112 65.8582L36.25 66H21.75L21.7888 65.8582C21.5558 65.9484 21.2969 66 21.0379 66H3.97455C1.78661 66 0 64.2211 0 62.0426C0 52.3102 6.7192 44.1375 15.7817 41.8816C16.8304 41.6238 17.8402 42.307 18.0991 43.3383L22.7598 62.2746L27.0839 46.3031H27.071Z"
      fill="black" />
  </g>
  <defs>
    <clipPath id="clip0_74_475">
      <rect width="58" height="66" fill="white" />
    </clipPath>
  </defs>
</svg>
  