<svg width="75" height="60" viewBox="0 0 75 60" fill="none" xmlns="http://www.w3.org/2000/svg">
  <g clip-path="url(#clip0_7_2348)">
    <path
      d="M39.5859 0.632812C38.3203 -0.210938 36.6797 -0.210938 35.4141 0.632812L19.4883 11.25H5.625C2.51953 11.25 0 13.7695 0 16.875V54.375C0 57.4805 2.51953 60 5.625 60H69.375C72.4805 60 75 57.4805 75 54.375V16.875C75 13.7695 72.4805 11.25 69.375 11.25H55.5117L39.5859 0.632812ZM30 48.75C30 44.6133 33.3633 41.25 37.5 41.25C41.6367 41.25 45 44.6133 45 48.75V60H30V48.75ZM11.25 22.5H15C16.0312 22.5 16.875 23.3438 16.875 24.375V31.875C16.875 32.9062 16.0312 33.75 15 33.75H11.25C10.2188 33.75 9.375 32.9062 9.375 31.875V24.375C9.375 23.3438 10.2188 22.5 11.25 22.5ZM58.125 24.375C58.125 23.3438 58.9688 22.5 60 22.5H63.75C64.7812 22.5 65.625 23.3438 65.625 24.375V31.875C65.625 32.9062 64.7812 33.75 63.75 33.75H60C58.9688 33.75 58.125 32.9062 58.125 31.875V24.375ZM11.25 37.5H15C16.0312 37.5 16.875 38.3438 16.875 39.375V46.875C16.875 47.9062 16.0312 48.75 15 48.75H11.25C10.2188 48.75 9.375 47.9062 9.375 46.875V39.375C9.375 38.3438 10.2188 37.5 11.25 37.5ZM58.125 39.375C58.125 38.3438 58.9688 37.5 60 37.5H63.75C64.7812 37.5 65.625 38.3438 65.625 39.375V46.875C65.625 47.9062 64.7812 48.75 63.75 48.75H60C58.9688 48.75 58.125 47.9062 58.125 46.875V39.375ZM27.1875 20.625C27.1875 17.89 28.274 15.2669 30.208 13.333C32.1419 11.399 34.765 10.3125 37.5 10.3125C40.235 10.3125 42.8581 11.399 44.792 13.333C46.726 15.2669 47.8125 17.89 47.8125 20.625C47.8125 23.36 46.726 25.9831 44.792 27.917C42.8581 29.851 40.235 30.9375 37.5 30.9375C34.765 30.9375 32.1419 29.851 30.208 27.917C28.274 25.9831 27.1875 23.36 27.1875 20.625ZM37.5 15C36.4688 15 35.625 15.8438 35.625 16.875V20.625C35.625 21.6562 36.4688 22.5 37.5 22.5H41.25C42.2812 22.5 43.125 21.6562 43.125 20.625C43.125 19.5938 42.2812 18.75 41.25 18.75H39.375V16.875C39.375 15.8438 38.5312 15 37.5 15Z"
      fill="black" />
  </g>
  <defs>
    <clipPath id="clip0_7_2348">
      <rect width="75" height="60" fill="white" />
    </clipPath>
  </defs>
</svg>