<svg width="37" height="37" viewBox="0 0 37 37" fill="none" xmlns="http://www.w3.org/2000/svg">
  <path
    d="M18.5 1C8.83501 1 1 8.83501 1 18.5C1 28.1649 8.83501 36 18.5 36C28.1649 36 36 28.1649 36 18.5C36 8.83501 28.1649 1 18.5 1Z"
    stroke="#D9D9D9" stroke-width="2" stroke-linecap="round" stroke-linejoin="round" />
  <path
    d="M4.97424 29.6049C4.97424 29.6049 8.87503 24.6249 18.5 24.6249C28.125 24.6249 32.0259 29.6049 32.0259 29.6049"
    stroke="#D9D9D9" stroke-width="2" stroke-linecap="round" stroke-linejoin="round" />
  <path
    d="M18.5 18.5C21.3996 18.5 23.75 16.1496 23.75 13.25C23.75 10.3505 21.3996 8 18.5 8C15.6004 8 13.25 10.3505 13.25 13.25C13.25 16.1496 15.6004 18.5 18.5 18.5Z"
    stroke="#D9D9D9" stroke-width="2" stroke-linecap="round" stroke-linejoin="round" />
</svg>
  