<svg width="78" height="63" viewBox="0 0 78 63" fill="none" xmlns="http://www.w3.org/2000/svg">
  <g clip-path="url(#clip0_7_2323)">
    <path
      d="M39 3.9375C38.0128 3.9375 37.0378 4.10977 36.1116 4.44199L1.92562 16.9066C0.767812 17.3373 -8.98144e-07 18.4447 -8.98144e-07 19.6875C-8.98144e-07 20.9303 0.767812 22.0377 1.92562 22.4684L8.98219 25.04C6.98344 28.2146 5.85 31.9676 5.85 35.9174V39.375C5.85 42.8695 4.53375 46.4748 3.13219 49.3172C2.34 50.9168 1.43812 52.4918 0.389999 53.9437C-8.9407e-07 54.4729 -0.109688 55.1619 0.109687 55.7895C0.329062 56.417 0.840937 56.8846 1.47469 57.0445L9.27469 59.0133C9.78656 59.1486 10.335 59.0502 10.7859 58.7672C11.2369 58.4842 11.5537 58.0166 11.6512 57.4875C12.6994 52.2211 12.1753 47.4961 11.3953 44.1123C11.0053 42.365 10.4812 40.5809 9.75 38.9443V35.9174C9.75 32.2014 10.9931 28.6945 13.1503 25.8891C14.7225 23.9818 16.7578 22.4438 19.1466 21.4963L38.2809 13.9043C39.2803 13.5105 40.4137 14.0027 40.8037 15.0117C41.1937 16.0207 40.7062 17.165 39.7069 17.5588L20.5725 25.1508C19.0613 25.7537 17.7328 26.6766 16.6481 27.8086L36.0994 34.8961C37.0256 35.2283 38.0006 35.4006 38.9878 35.4006C39.975 35.4006 40.95 35.2283 41.8763 34.8961L76.0744 22.4684C77.2322 22.05 78 20.9303 78 19.6875C78 18.4447 77.2322 17.3373 76.0744 16.9066L41.8884 4.44199C40.9622 4.10977 39.9872 3.9375 39 3.9375ZM15.6 50.2031C15.6 54.5467 26.0812 59.0625 39 59.0625C51.9188 59.0625 62.4 54.5467 62.4 50.2031L60.5353 32.3121L43.2047 38.6367C41.8519 39.1289 40.4259 39.375 39 39.375C37.5741 39.375 36.1359 39.1289 34.7953 38.6367L17.4647 32.3121L15.6 50.2031Z"
      fill="black" />
  </g>
  <defs>
    <clipPath id="clip0_7_2323">
      <rect width="78" height="63" fill="white" />
    </clipPath>
  </defs>
</svg>
  