<svg width="73" height="59" viewBox="0 0 73 59" fill="none" xmlns="http://www.w3.org/2000/svg">
  <path
    d="M21.9 11.0625C23.352 11.0625 24.7446 10.4797 25.7714 9.44243C26.7982 8.40512 27.375 6.99823 27.375 5.53125C27.375 4.06427 26.7982 2.65738 25.7714 1.62007C24.7446 0.582755 23.352 0 21.9 0C20.4479 0 19.0553 0.582755 18.0286 1.62007C17.0018 2.65738 16.425 4.06427 16.425 5.53125C16.425 6.99823 17.0018 8.40512 18.0286 9.44243C19.0553 10.4797 20.4479 11.0625 21.9 11.0625ZM20.9875 55.3125V40.5625H22.8125V55.3125C22.8125 57.3521 24.4436 59 26.4625 59C28.4814 59 30.1125 57.3521 30.1125 55.3125V22.125H36.5H43.8H45.625C47.6439 22.125 49.275 20.4771 49.275 18.4375C49.275 16.3979 47.6439 14.75 45.625 14.75H43.8V7.375H65.7V29.5H43.8V25.8125H36.5V31.3438C36.5 34.3975 38.9523 36.875 41.975 36.875H67.525C70.5476 36.875 73 34.3975 73 31.3438V5.53125C73 2.47754 70.5476 0 67.525 0H41.975C38.9523 0 36.5 2.47754 36.5 5.53125V14.75H27.7286H20.2005C16.3565 14.75 12.7978 16.7896 10.8131 20.1199L4.16327 31.2977C3.1253 33.0377 3.6842 35.3078 5.40655 36.3564C7.12889 37.4051 9.37592 36.8404 10.4139 35.1004L13.6875 29.6037V55.3125C13.6875 57.3521 15.3186 59 17.3375 59C19.3564 59 20.9875 57.3521 20.9875 55.3125Z"
    fill="black" />
</svg>
  